<?xml version="1.0" standalone="no"?>
<!DOCTYPE svg PUBLIC "-//W3C//DTD SVG 1.1//EN" "http://www.w3.org/Graphics/SVG/1.1/DTD/svg11.dtd" >
<svg xmlns="http://www.w3.org/2000/svg">
<metadata>Generated by IcoMoon</metadata>
<defs>
<font id="icon" horiz-adv-x="1024">
<font-face units-per-em="1024" ascent="960" descent="-64" />
<missing-glyph horiz-adv-x="1024" />
<glyph unicode="&#x20;" horiz-adv-x="512" d="" />
<glyph unicode="&#xe900;" glyph-name="360" horiz-adv-x="964" d="M818.604 658.124c10.921-0.446 21.715 2.46 30.937 8.329 9.114 5.469 16.366 13.554 20.823 23.202 4.554 10.921 6.782 22.673 6.542 34.505 0.723 17.125-5.012 33.897-16.059 46.998-5.198 6.059-11.698 10.865-19.010 14.058s-15.258 4.692-23.233 4.385c-10.674-0.004-21.155-2.88-30.341-8.329-9.114-5.469-16.366-13.554-20.823-23.202-4.807-10.442-7.24-21.82-7.138-33.316-0.753-17.31 4.975-34.281 16.065-47.593 5.192-6.101 11.674-10.973 18.98-14.266s15.246-4.922 23.257-4.772zM799.569 752.12c2.217 2.956 5.090 5.354 8.391 7.007 3.307 1.652 6.951 2.512 10.644 2.512 3.698 0 7.337-0.86 10.644-2.512s6.18-4.051 8.397-7.007c5.536-8.015 8.252-17.639 7.734-27.366 0.783-10.311-1.94-20.585-7.734-29.151-2.072-3.108-4.915-5.622-8.252-7.291-3.343-1.67-7.060-2.437-10.788-2.227-3.656-0.166-7.301 0.56-10.619 2.114-3.313 1.554-6.204 3.891-8.415 6.81-5.536 8.015-8.258 17.639-7.734 27.366-0.831 10.501 1.891 20.978 7.734 29.745zM598.486 411.234h118.983c6.782 0 13.294 2.695 18.089 7.492 4.801 4.798 7.493 11.304 7.493 18.089v245.105c0 6.785-2.693 13.292-7.493 18.089-4.795 4.798-11.306 7.493-18.089 7.493h-118.983c-6.84 0.002-13.41-2.674-18.302-7.455s-7.719-11.287-7.875-18.126v-245.105c0.155-6.839 2.982-13.345 7.875-18.126s11.462-7.457 18.302-7.455zM624.068 655.744h70.198v-192.753h-70.198v192.753zM963.765 417.778c0-32.126-19.631-78.526-111.845-118.986-80.384-31.298-165.009-50.351-251.054-56.513h-82.098c-4.168 0.181-8.232 1.355-11.854 3.421-3.622 2.072-6.696 4.975-8.968 8.475-3.439 3.686-5.74 8.288-6.628 13.246-0.887 4.963-0.323 10.077 1.624 14.728s5.196 8.638 9.355 11.481c4.159 2.849 9.052 4.433 14.091 4.572h81.504c80.406 4.668 159.64 21.522 234.994 49.971 50.568 22.012 80.312 48.783 80.312 71.39s-55.922 67.82-142.185 92.807c-5.048 1.275-9.583 4.057-13.005 7.978-3.427 3.921-5.572 8.793-6.15 13.964-0.584 5.172 0.428 10.398 2.891 14.982 2.47 4.583 6.27 8.305 10.909 10.669 3.102 1.326 6.445 2.009 9.818 2.009s6.71-0.683 9.812-2.009c114.821-30.936 178.477-82.098 178.477-140.4v-1.785zM440.833 290.467c3.948-4.644 6.063-10.565 5.949-16.661 0.301-3.542-0.124-7.114-1.249-10.487-1.125-3.379-2.927-6.487-5.295-9.144l-71.985-79.715c-2.505-2.693-5.547-4.825-8.929-6.258s-7.029-2.138-10.703-2.072c-6.386-0.163-12.58 2.187-17.253 6.542-4.689 4.879-7.309 11.378-7.309 18.149 0 6.764 2.62 13.264 7.309 18.143l31.531 35.695c-81.335 5.367-161.476 22.395-237.967 50.568-81.503 32.72-124.932 77.934-124.932 124.337 1 16.443 5.823 32.426 14.086 46.679s19.735 26.38 33.508 35.42c33.408 23.92 70.618 42.023 110.059 53.543 3.521 0.962 7.21 1.141 10.807 0.524s7.016-2.014 10.015-4.094c5.996-3.361 10.469-8.899 12.493-15.468 1.108-3.24 1.554-6.669 1.313-10.085s-1.167-6.748-2.72-9.799c-1.553-3.052-3.704-5.76-6.324-7.965s-5.655-3.862-8.926-4.872c-74.96-24.392-118.983-59.491-118.983-86.263s34.505-52.947 92.212-76.148c72.4-26.184 148.079-42.201 224.879-47.592l-35.1 41.641c-3.936 3.692-6.636 8.511-7.728 13.794s-0.526 10.777 1.623 15.727c2.149 4.95 5.775 9.114 10.383 11.923s9.97 4.126 15.355 3.771c6.029-0.408 11.719-2.937 16.062-7.139l67.821-82.692zM288.534 587.924v67.82h-75.554c-6.839 0.156-13.345 2.982-18.126 7.875s-7.457 11.462-7.455 18.302c0 6.785 2.695 13.292 7.493 18.089s11.304 7.493 18.089 7.493h101.136c6.841 0.002 13.41-2.674 18.302-7.455s7.719-11.287 7.874-18.126v-245.105c-0.155-6.839-2.982-13.345-7.874-18.126s-11.462-7.457-18.302-7.455h-101.136c-6.784 0-13.291 2.695-18.089 7.492s-7.493 11.304-7.493 18.089c-0.002 6.84 2.674 13.41 7.455 18.302s11.287 7.719 18.126 7.874h75.554v70.201h-75.554c-6.839 0.155-13.345 2.982-18.126 7.874s-7.457 11.462-7.455 18.302c0 6.785 2.695 13.292 7.493 18.089s11.304 7.493 18.089 7.493l75.554 2.974zM434.336 410.809l80.267 0.465c6.784 0 13.701 3.336 18.498 8.134s7.083 13.597 7.083 20.382v119.578c0 6.785-2.695 13.292-7.493 18.089s-11.304 7.493-18.089 7.493h-93.402v70.795h75.554c6.839 0.156 13.345 2.982 18.126 7.875s7.457 11.462 7.455 18.302c0 6.785-2.695 13.292-7.493 18.089s-11.304 7.493-18.089 7.493h-101.136c-6.84 0.002-13.41-2.674-18.302-7.455s-7.719-11.287-7.874-18.126v-245.105c0.155-6.839 2.982-13.345 7.874-18.126s11.462-7.457 18.302-7.455l38.716-0.425zM421.201 536.166h70.2v-73.175h-70.2v73.175z" />
<glyph unicode="&#xe901;" glyph-name="adapter" horiz-adv-x="964" d="M692.26 544.673v136.114c0 15.661-12.162 28.223-27.317 28.223h-52.14v136.125c0 21.34-14.989 40.27-35.477 42.335-23.486 2.409-43.309-16.693-43.309-40.614v-137.846h-103.94v136.125c0 21.34-14.991 40.27-35.646 42.335-23.486 2.237-43.309-16.693-43.309-40.614v-137.846h-52.303c-15.158 0-27.317-12.563-27.317-28.223v-136.114h420.756zM240.941 494.435v-425.948c0-13.306 10.788-24.094 24.094-24.094h433.694c13.306 0 24.094 10.788 24.094 24.094v425.948c0 13.307-10.788 24.094-24.094 24.094h-433.694c-13.307 0-24.094-10.788-24.094-24.094zM439.507 137.162c-1.327 0-2.653 0.307-3.893 0.934-3.736 1.934-5.621 6.313-4.521 10.481l30.603 114.839h-58.378c-3.3 0-6.32 1.928-7.804 4.975-1.466 3.048-1.152 6.71 0.821 9.433l104.449 144.294c2.409 3.336 6.721 4.527 10.405 2.904 3.701-1.623 5.848-5.646 5.203-9.758l-15.503-97.738h59.548c3.317 0 6.355-1.952 7.838-5.036 1.467-3.084 1.1-6.758-0.925-9.487l-120.929-162.322c-1.693-2.277-4.277-3.518-6.913-3.518z" />
<glyph unicode="&#xe902;" glyph-name="adjust-time" horiz-adv-x="964" d="M640.524 453.412v49.412h44.219c-11.258 92.971-85.183 166.898-178.155 178.153v-44.217h-49.412v44.217c-92.971-11.254-166.898-85.181-178.153-178.153h44.217v-49.412h-44.217c11.254-92.972 85.181-166.897 178.153-178.155v44.219h49.412v-44.219c92.972 11.258 166.897 85.183 178.155 178.155h-44.219zM506.588 446.947l-68.458-56.629-31.493 38.074 50.54 41.807v111.987h49.412v-135.238zM828.187 560.457c-8.74 36.973-23.227 71.94-43.213 104.3l37.804 68.763-85.492 85.496-68.765-37.807c-32.358 19.988-67.324 34.476-104.297 43.21l-21.888 75.345h-120.907l-21.886-75.347c-36.973-8.734-71.94-23.222-104.298-43.21l-68.763 37.807-85.494-85.496 37.807-68.763c-19.99-32.36-34.478-67.327-43.212-104.3l-75.347-21.883v-120.908l75.345-21.885c8.736-36.973 23.224-71.943 43.212-104.301l-37.807-68.765 85.494-85.492 68.763 37.804c32.358-19.986 67.325-34.473 104.298-43.207l21.888-75.348h120.907l21.886 75.348c36.973 8.734 71.941 23.221 104.299 43.207l68.765-37.804 85.492 85.492-37.81 68.765c19.992 32.358 34.479 67.328 43.213 104.301l75.348 21.883v120.908l-75.342 21.886zM481.882 224.352c-139.928 0-253.767 113.839-253.767 253.765 0 139.928 113.839 253.767 253.767 253.767s253.765-113.839 253.765-253.767c0-139.927-113.839-253.765-253.765-253.765z" />
<glyph unicode="&#xe903;" glyph-name="air-conditining-fan" horiz-adv-x="964" d="M697.621 899.529c30.503 0 55.32-25.22 55.32-56.219v-685.879c0-30.997-24.817-56.218-55.32-56.218h-11.059v-44.978h-99.575v44.978h-210.209v-44.978h-99.573v44.978h-11.063c-30.503 0-55.318 25.221-55.318 56.218v685.879c0 30.999 24.816 56.219 55.318 56.219h431.479zM354.651 78.722v22.492h-55.318v-22.492h55.318zM664.431 78.722v22.492h-55.32v-22.492h55.32zM664.431 809.578h-365.099v-22.488h365.099v22.488zM299.333 753.359v-22.488h365.099v22.488h-365.099zM664.431 697.139h-365.099v-22.488h365.099v22.488zM299.333 640.919v-22.488h365.099v22.488h-365.099zM664.431 584.7h-365.099v-22.488h365.099v22.488zM771.319 734.085h78.836c29.389 0 53.332 23.877 53.374 53.228 0.036 29.117-24.293 53.364-53.381 53.364l-28.046-0.002v-25.227l28.046 0.002c15.33 0 28.172-12.756 28.154-28.105-0.024-15.458-12.649-28.034-28.148-28.034h-78.836v-25.227zM771.319 691.92h123.976v-25.227h-123.976v25.227zM850.149 517.925l-28.046 0.002v25.227l28.046-0.002c15.33 0 28.172 12.755 28.154 28.106-0.024 15.457-12.649 28.032-28.148 28.032h-78.836v25.227h78.836c29.389 0 53.338-23.877 53.374-53.225 0.036-29.119-24.293-53.367-53.381-53.367zM68.467 691.92h123.975v-25.227h-123.975v25.227zM192.443 734.031h-78.832c-29.395 0-53.338 23.877-53.376 53.226-0.038 29.117 24.29 53.363 53.376 53.363l28.050-0.002-0.002-25.227-28.049 0.002c-15.325 0-28.169-12.758-28.15-28.106 0.020-15.456 12.648-28.032 28.15-28.032h78.832v-25.225zM60.235 571.291c-0.038-29.117 24.292-53.364 53.378-53.364h28.049l-0.002 25.227-28.049-0.002c-15.325 0-28.169 12.757-28.15 28.106 0.020 15.457 12.648 28.032 28.15 28.032h78.832v25.227h-78.832c-29.393 0-53.338-23.877-53.376-53.227z" />
<glyph unicode="&#xe904;" glyph-name="air-fryer" horiz-adv-x="964" d="M549.647 403.86v-207.077c0-18.637-7.14-36.509-19.848-49.688s-29.945-20.582-47.917-20.582c-17.972 0-35.209 7.403-47.917 20.582s-19.848 31.051-19.848 49.688v207.077c-27.675 16.606-48.797 42.825-59.633 74.022h-234.014v-187.397c0-140.553 90.353-187.398 135.529-187.398v-46.851h451.765v46.851c45.176 0 135.529 46.845 135.529 187.398v187.397h-234.014c-10.836-31.196-31.958-57.416-59.633-74.022zM481.882 665.281c35.945 0 70.417-14.808 95.834-41.165 25.414-26.358 39.696-62.107 39.696-99.383h225.882c0 74.552-28.558 146.050-79.39 198.766s-119.778 82.332-191.669 82.332h-180.706c-71.889 0-140.834-29.616-191.668-82.332s-79.391-124.214-79.391-198.766h225.882c0 37.276 14.279 73.025 39.696 99.383s59.889 41.165 95.834 41.165zM572.235 899.529h-180.706c-11.981 0-23.472-4.936-31.945-13.722s-13.232-20.702-13.232-33.128h271.059c0 12.425-4.759 24.342-13.234 33.128-8.47 8.786-19.961 13.722-31.943 13.722zM436.706 392.613v-195.83c0-12.427 4.76-24.341 13.232-33.129s19.963-13.722 31.945-13.722c11.981 0 23.472 4.933 31.945 13.722s13.232 20.703 13.232 33.129v195.83c-29.144-11.235-61.209-11.235-90.353 0zM504.471 313.904c0-4.632-1.325-9.162-3.807-13.011-2.482-3.855-6.010-6.855-10.137-8.632-4.128-1.771-8.67-2.235-13.051-1.331s-8.406 3.132-11.566 6.409c-3.159 3.277-5.31 7.451-6.181 11.993-0.872 4.548-0.425 9.258 1.285 13.535 1.709 4.283 4.604 7.939 8.319 10.517 3.715 2.572 8.082 3.945 12.549 3.945 5.991 0 11.736-2.47 15.973-6.861s6.616-10.348 6.616-16.565zM538.353 452.111c4.091 3.38 7.872 7.143 11.294 11.244 3.715 4.532 7.040 9.391 9.939 14.523 8.14 14.226 12.503 30.434 12.646 46.976s-3.94 32.828-11.833 47.203c-7.893 14.375-19.316 26.327-33.107 34.641s-29.458 12.693-45.41 12.693c-15.952 0-31.619-4.38-45.41-12.693s-25.213-20.266-33.107-34.641c-7.893-14.375-11.976-30.661-11.833-47.203s4.506-32.75 12.646-46.976c2.899-5.132 6.224-9.992 9.939-14.523 3.423-4.101 7.204-7.864 11.294-11.244 3.584-2.92 7.358-5.581 11.294-7.964 13.623-8.559 29.248-13.084 45.176-13.084s31.553 4.525 45.176 13.084c3.936 2.383 7.71 5.044 11.294 7.964z" />
<glyph unicode="&#xe905;" glyph-name="air-purifier" horiz-adv-x="964" d="M701.554 899.529h-441.299c-4.28-0.004-8.385-1.631-11.412-4.522s-4.729-6.813-4.733-10.903v-817.586c0-2.729 1.134-5.343 3.153-7.27 2.018-1.928 4.755-3.012 7.61-3.012h452.061c2.855 0 5.596 1.084 7.614 3.012s3.15 4.542 3.15 7.27v817.586c-0.006 4.090-1.705 8.011-4.734 10.903-3.024 2.892-7.126 4.519-11.409 4.522zM308.69 97.37c-4.259 0-8.42 1.205-11.96 3.47-3.54 2.259-6.298 5.469-7.928 9.228s-2.055 7.897-1.225 11.884 2.88 7.656 5.891 10.529c3.011 2.879 6.846 4.837 11.022 5.632s8.505 0.386 12.437-1.169c3.935-1.56 7.297-4.192 9.662-7.578s3.629-7.361 3.629-11.427c0-5.457-2.269-10.686-6.305-14.547-4.038-3.855-9.512-6.024-15.222-6.024zM308.69 179.646c-4.259 0-8.42 1.205-11.96 3.464s-6.298 5.475-7.928 9.234c-1.629 3.759-2.055 7.891-1.225 11.884 0.83 3.988 2.88 7.65 5.891 10.529 3.011 2.873 6.846 4.837 11.022 5.626 4.176 0.795 8.505 0.386 12.437-1.169 3.935-1.554 7.297-4.192 9.662-7.572 2.365-3.385 3.629-7.361 3.629-11.433 0-5.451-2.269-10.686-6.305-14.541-4.038-3.861-9.512-6.024-15.222-6.024zM308.69 261.915c-4.259 0-8.42 1.211-11.96 3.47s-6.298 5.469-7.928 9.228c-1.629 3.759-2.055 7.897-1.225 11.884 0.83 3.994 2.88 7.656 5.891 10.529 3.011 2.879 6.846 4.837 11.022 5.632s8.505 0.386 12.437-1.169c3.935-1.56 7.297-4.192 9.662-7.578 2.365-3.379 3.629-7.361 3.629-11.427 0-5.457-2.269-10.686-6.305-14.547-4.038-3.855-9.512-6.024-15.222-6.024zM308.69 344.19c-4.259 0-8.42 1.205-11.96 3.464-3.54 2.265-6.298 5.475-7.928 9.234-1.629 3.757-2.055 7.893-1.225 11.883s2.88 7.654 5.891 10.53c3.011 2.877 6.846 4.836 11.022 5.629s8.505 0.386 12.437-1.17c3.935-1.558 7.297-4.193 9.662-7.575s3.629-7.359 3.629-11.428c0-5.455-2.269-10.688-6.305-14.543-4.038-3.855-9.512-6.024-15.222-6.024zM308.69 426.462c-4.259 0-8.42 1.206-11.96 3.466s-6.298 5.472-7.928 9.231c-1.629 3.758-2.055 7.894-1.225 11.884s2.88 7.654 5.891 10.531c3.011 2.876 6.846 4.836 11.022 5.629 4.176 0.795 8.505 0.386 12.437-1.17 3.935-1.557 7.297-4.192 9.662-7.575s3.629-7.359 3.629-11.428c0-5.455-2.269-10.686-6.305-14.543-4.038-3.858-9.512-6.025-15.222-6.025zM394.797 97.37c-4.258 0-8.42 1.205-11.96 3.47-3.54 2.259-6.298 5.469-7.928 9.228s-2.055 7.897-1.225 11.884 2.881 7.656 5.891 10.529c3.011 2.879 6.846 4.837 11.022 5.632s8.505 0.386 12.437-1.169c3.935-1.56 7.297-4.192 9.662-7.578s3.629-7.361 3.629-11.427c0-5.457-2.268-10.686-6.305-14.547-4.038-3.855-9.512-6.024-15.222-6.024zM394.797 179.646c-4.258 0-8.42 1.205-11.96 3.464s-6.298 5.475-7.928 9.234c-1.629 3.759-2.055 7.891-1.225 11.884 0.83 3.988 2.881 7.65 5.891 10.529 3.011 2.873 6.846 4.837 11.022 5.626 4.176 0.795 8.505 0.386 12.437-1.169 3.935-1.554 7.297-4.192 9.662-7.572 2.365-3.385 3.629-7.361 3.629-11.433 0-5.451-2.268-10.686-6.305-14.541-4.038-3.861-9.512-6.024-15.222-6.024zM394.797 261.915c-4.258 0-8.42 1.211-11.96 3.47s-6.298 5.469-7.928 9.228c-1.629 3.759-2.055 7.897-1.225 11.884 0.83 3.994 2.881 7.656 5.891 10.529 3.011 2.879 6.846 4.837 11.022 5.632s8.505 0.386 12.437-1.169c3.935-1.56 7.297-4.192 9.662-7.578 2.365-3.379 3.629-7.361 3.629-11.427 0-5.457-2.268-10.686-6.305-14.547-4.038-3.855-9.512-6.024-15.222-6.024zM394.797 344.19c-4.258 0-8.42 1.205-11.96 3.464-3.54 2.265-6.298 5.475-7.928 9.234-1.629 3.757-2.055 7.893-1.225 11.883s2.881 7.654 5.891 10.53c3.011 2.877 6.846 4.836 11.022 5.629s8.505 0.386 12.437-1.17c3.935-1.558 7.297-4.193 9.662-7.575s3.629-7.359 3.629-11.428c0-5.455-2.268-10.688-6.305-14.543s-9.512-6.024-15.222-6.024zM394.797 426.462c-4.258 0-8.42 1.206-11.96 3.466s-6.298 5.472-7.928 9.231c-1.629 3.758-2.055 7.894-1.225 11.884s2.881 7.654 5.891 10.531c3.011 2.876 6.846 4.836 11.022 5.629 4.176 0.795 8.505 0.386 12.437-1.17 3.935-1.557 7.297-4.192 9.662-7.575s3.629-7.359 3.629-11.428c0-5.455-2.268-10.686-6.305-14.543s-9.512-6.025-15.222-6.025zM480.905 97.37c-4.257 0-8.42 1.205-11.96 3.47-3.54 2.259-6.299 5.469-7.929 9.228s-2.055 7.897-1.225 11.884 2.881 7.656 5.892 10.529c3.010 2.879 6.847 4.837 11.021 5.632 4.177 0.795 8.505 0.386 12.437-1.169 3.935-1.56 7.297-4.192 9.662-7.578s3.629-7.361 3.629-11.427c0-5.457-2.268-10.686-6.305-14.547-4.038-3.855-9.513-6.024-15.222-6.024zM480.905 179.646c-4.257 0-8.42 1.205-11.96 3.464s-6.299 5.475-7.929 9.234c-1.629 3.759-2.055 7.891-1.225 11.884 0.83 3.988 2.881 7.65 5.892 10.529 3.010 2.873 6.847 4.837 11.021 5.626 4.177 0.795 8.505 0.386 12.437-1.169 3.935-1.554 7.297-4.192 9.662-7.572 2.365-3.385 3.629-7.361 3.629-11.433 0-5.451-2.268-10.686-6.305-14.541-4.038-3.861-9.513-6.024-15.222-6.024zM480.905 261.915c-4.257 0-8.42 1.211-11.96 3.47s-6.299 5.469-7.929 9.228c-1.629 3.759-2.055 7.897-1.225 11.884 0.83 3.994 2.881 7.656 5.892 10.529 3.010 2.879 6.847 4.837 11.021 5.632 4.177 0.795 8.505 0.386 12.437-1.169 3.935-1.56 7.297-4.192 9.662-7.578 2.365-3.379 3.629-7.361 3.629-11.427 0-5.457-2.268-10.686-6.305-14.547-4.038-3.855-9.513-6.024-15.222-6.024zM480.905 344.19c-4.257 0-8.42 1.205-11.96 3.464-3.54 2.265-6.299 5.475-7.929 9.234-1.629 3.757-2.055 7.893-1.225 11.883s2.881 7.654 5.892 10.53c3.010 2.877 6.847 4.836 11.021 5.629 4.177 0.793 8.505 0.386 12.437-1.17 3.935-1.558 7.297-4.193 9.662-7.575s3.629-7.359 3.629-11.428c0-5.455-2.268-10.688-6.305-14.543s-9.513-6.024-15.222-6.024zM480.905 426.462c-4.257 0-8.42 1.206-11.96 3.466s-6.299 5.472-7.929 9.231c-1.629 3.758-2.055 7.894-1.225 11.884s2.881 7.654 5.892 10.531c3.010 2.876 6.847 4.836 11.021 5.629 4.177 0.795 8.505 0.386 12.437-1.17 3.935-1.557 7.297-4.192 9.662-7.575s3.629-7.359 3.629-11.428c0-5.455-2.268-10.686-6.305-14.543s-9.513-6.025-15.222-6.025zM480.905 693.847c-17.030 0-33.678 4.825-47.838 13.866s-25.197 21.89-31.714 36.923c-6.517 15.033-8.223 31.576-4.9 47.535 3.322 15.959 11.523 30.619 23.565 42.125s27.385 19.342 44.089 22.516c16.703 3.175 34.015 1.546 49.75-4.681s29.182-16.772 38.644-30.302c9.462-13.529 14.512-29.436 14.512-45.708-0.027-21.813-9.106-42.724-25.249-58.148s-38.029-24.1-60.858-24.125zM567.012 97.37c-4.257 0-8.419 1.205-11.959 3.47-3.54 2.259-6.3 5.469-7.93 9.228s-2.055 7.897-1.225 11.884 2.881 7.656 5.892 10.529c3.011 2.879 6.847 4.837 11.022 5.632s8.503 0.386 12.437-1.169c3.935-1.56 7.296-4.192 9.662-7.578s3.628-7.361 3.628-11.427c0-5.457-2.268-10.686-6.305-14.547-4.038-3.855-9.513-6.024-15.222-6.024zM567.012 179.646c-4.257 0-8.419 1.205-11.959 3.464s-6.3 5.475-7.93 9.234c-1.629 3.759-2.055 7.891-1.225 11.884 0.83 3.988 2.881 7.65 5.892 10.529 3.011 2.873 6.847 4.837 11.022 5.626 4.176 0.795 8.503 0.386 12.437-1.169s7.296-4.192 9.662-7.572c2.365-3.385 3.628-7.361 3.628-11.433 0-5.451-2.268-10.686-6.305-14.541-4.038-3.861-9.513-6.024-15.222-6.024zM567.012 261.915c-4.257 0-8.419 1.211-11.959 3.47s-6.3 5.469-7.93 9.228c-1.629 3.759-2.055 7.897-1.225 11.884 0.83 3.994 2.881 7.656 5.892 10.529 3.011 2.879 6.847 4.837 11.022 5.632s8.503 0.386 12.437-1.169c3.935-1.56 7.296-4.192 9.662-7.578 2.365-3.379 3.628-7.361 3.628-11.427 0-5.457-2.268-10.686-6.305-14.547-4.038-3.855-9.513-6.024-15.222-6.024zM567.012 344.19c-4.257 0-8.419 1.205-11.959 3.464-3.54 2.265-6.3 5.475-7.93 9.234-1.629 3.757-2.055 7.893-1.225 11.883s2.881 7.654 5.892 10.53c3.011 2.877 6.847 4.836 11.022 5.629s8.503 0.386 12.437-1.17c3.935-1.558 7.296-4.193 9.662-7.575s3.628-7.359 3.628-11.428c0-5.455-2.268-10.688-6.305-14.543-4.038-3.855-9.513-6.024-15.222-6.024zM567.012 426.462c-4.257 0-8.419 1.206-11.959 3.466s-6.3 5.472-7.93 9.231c-1.629 3.758-2.055 7.894-1.225 11.884s2.881 7.654 5.892 10.531c3.011 2.876 6.847 4.836 11.022 5.629 4.176 0.795 8.503 0.386 12.437-1.17s7.296-4.192 9.662-7.575 3.628-7.359 3.628-11.428c0-5.455-2.268-10.686-6.305-14.543-4.038-3.858-9.513-6.025-15.222-6.025zM653.119 97.37c-4.259 0-8.421 1.205-11.963 3.47-3.536 2.259-6.295 5.469-7.927 9.228-1.626 3.759-2.054 7.897-1.223 11.884s2.879 7.656 5.891 10.529c3.012 2.879 6.849 4.837 11.023 5.632s8.499 0.386 12.433-1.169c3.939-1.56 7.301-4.192 9.662-7.578 2.367-3.385 3.632-7.361 3.632-11.427 0-5.457-2.271-10.686-6.307-14.547-4.036-3.855-9.511-6.024-15.221-6.024zM653.119 179.646c-4.259 0-8.421 1.205-11.963 3.464-3.536 2.259-6.295 5.475-7.927 9.234-1.626 3.759-2.054 7.891-1.223 11.884 0.831 3.988 2.879 7.65 5.891 10.529 3.012 2.873 6.849 4.837 11.023 5.626 4.174 0.795 8.499 0.386 12.433-1.169 3.939-1.554 7.301-4.192 9.662-7.572 2.367-3.385 3.632-7.361 3.632-11.433 0-5.451-2.271-10.686-6.307-14.541-4.036-3.861-9.511-6.024-15.221-6.024zM653.119 261.915c-4.259 0-8.421 1.211-11.963 3.47-3.536 2.259-6.295 5.469-7.927 9.228-1.626 3.759-2.054 7.897-1.223 11.884 0.831 3.994 2.879 7.656 5.891 10.529 3.012 2.879 6.849 4.837 11.023 5.632s8.499 0.386 12.433-1.169c3.939-1.56 7.301-4.192 9.662-7.578 2.367-3.379 3.632-7.361 3.632-11.427 0-5.457-2.271-10.686-6.307-14.547-4.036-3.855-9.511-6.024-15.221-6.024zM653.119 344.19c-4.259 0-8.421 1.205-11.963 3.464-3.536 2.265-6.295 5.475-7.927 9.234-1.626 3.757-2.054 7.893-1.223 11.883s2.879 7.654 5.891 10.53c3.012 2.877 6.849 4.836 11.023 5.629s8.499 0.386 12.433-1.17c3.939-1.558 7.301-4.193 9.662-7.575 2.367-3.382 3.632-7.359 3.632-11.428 0-5.455-2.271-10.688-6.307-14.543s-9.511-6.024-15.221-6.024zM653.119 426.462c-4.259 0-8.421 1.206-11.963 3.466-3.536 2.261-6.295 5.472-7.927 9.231-1.626 3.758-2.054 7.894-1.223 11.884s2.879 7.654 5.891 10.531c3.012 2.876 6.849 4.836 11.023 5.629 4.174 0.795 8.499 0.386 12.433-1.17 3.939-1.557 7.301-4.192 9.662-7.575 2.367-3.382 3.632-7.359 3.632-11.428 0-5.455-2.271-10.686-6.307-14.543s-9.511-6.025-15.221-6.025zM480.902 734.984c23.778 0 43.053 18.416 43.053 41.136s-19.275 41.136-43.053 41.136c-23.778 0-43.054-18.418-43.054-41.136s19.276-41.136 43.054-41.136zM163.423 665.351c12.661 15.136 30.328 25.241 49.836 29.079l-0.045 1.773h-0.807v27.64c-28.517-4.319-54.477-18.48-72.753-40.333-16.42-19.629-40.949-30.881-67.26-30.881h-12.158v-29.079h12.158c35.608 0 68.782 15.237 91.029 41.801zM802.075 625.045v-59.657l101.454 72.699-101.454 72.697v-55.527c-8.644 2.763-16.462 7.605-22.341 14.612l-22.853 27.276c-4.488 5.38-9.891 9.8-15.673 13.77v-14.293l-0.807-0.014-0.717-25.474 16.282-19.439c11.752-14.016 28.046-23.278 46.11-26.651zM802.075 480.784c-8.644 2.762-16.462 7.604-22.341 14.613l-22.853 27.29c-5.813 6.936-12.951 12.81-20.926 17.391l-1.066-37.702 21.064-25.139c11.746-14.046 28.058-23.293 46.104-26.666v-59.655l101.454 72.697-101.436 72.699v-55.527zM779.734 320.922c5.873-7.005 13.698-11.848 22.341-14.613v55.529l101.454-72.696-101.454-72.698v59.657c-18.046 3.373-34.358 12.619-46.11 26.66l-22.853 27.281c-0.717 0.855-1.512 1.626-2.301 2.409v0h-0.006c-0.229 0.229-0.464 0.458-0.693 0.687l0.988 35.082c9.951-4.812 18.751-11.615 25.781-20.017l22.853-27.281zM139.655 334.571c-16.42-19.643-40.95-30.895-67.26-30.895h-12.158v-29.082h12.158c35.608 0 68.797 15.24 91.029 41.803 14.821 17.739 36.278 28.539 59.682 30.491l-0.822 29.034c-32.367-2.21-62.147-16.895-82.629-41.352zM218.176 520.814c-21.457-2.981-40.965-13.464-54.751-29.938-22.248-26.564-55.421-41.801-91.029-41.801h-12.158v29.079h12.158c26.31 0 50.84 11.253 67.245 30.896 19.432 23.22 47.234 37.774 77.699 41.073l0.837-29.31z" />
<glyph unicode="&#xe906;" glyph-name="android" d="M396.73 705.156c5.857 0 11.062 1.927 15.618 5.781s6.507 8.673 5.856 14.454c-0.65 5.782-2.603 10.931-5.856 15.448s-8.46 6.444-15.618 5.781c-7.158-0.662-12.038-2.589-14.641-5.781s-4.555-8.341-5.857-15.448c-1.301-7.107 0.651-11.924 5.857-14.454s10.086-4.456 14.641-5.781zM627.3 705.156c5.857 0 10.737 1.927 14.639 5.781 3.904 3.855 5.862 8.673 5.862 14.454s-1.958 10.931-5.862 15.448c-3.901 4.516-8.782 6.444-14.639 5.781s-11.062-2.589-15.617-5.781c-4.555-3.192-6.508-8.341-5.857-15.448s2.603-11.924 5.857-14.454c3.254-2.529 8.46-4.456 15.617-5.781zM184.705 605.817c14.987 0 28.012-5.471 39.074-16.412s16.268-23.798 15.618-38.573v-231.504c0-15.437-5.216-28.614-15.648-39.533-10.432-10.925-23.457-16.39-39.074-16.41-15.618-0.026-28.968 5.446-40.051 16.41-11.083 10.957-16.624 24.141-16.624 39.533v231.504c0 14.796 5.541 27.653 16.624 38.573s24.433 16.391 40.051 16.412h0.030zM762.125 595.187v-357.85c0-16.723-5.869-30.867-17.6-42.432-11.738-11.558-25.734-17.35-42.003-17.37h-41.030v-122.496c0-15.437-5.203-28.294-15.616-38.573-10.41-10.278-23.76-15.75-40.049-16.416-16.289-0.659-29.638 4.813-40.050 16.416s-15.953 24.461-16.624 38.573v122.496h-75.22v-122.496c0-15.437-5.206-28.294-15.618-38.573s-23.761-15.75-40.050-16.416c-15.638 0-28.662 5.472-39.074 16.416-10.412 10.938-15.953 23.795-16.625 38.573l-0.976 122.496h-40.050c-16.94 0-30.94 5.792-42.003 17.37-11.062 11.584-16.929 25.728-17.6 42.432v357.85h500.187zM636.086 813.168c38.436-19.292 69.373-46.623 92.817-81.995 23.45-35.372 35.174-74.276 35.174-116.714h-504.152c0 42.438 11.398 81.343 34.194 116.714s54.061 62.703 93.796 81.995l-38.098 70.402c-2.603 5.139-1.952 8.993 1.953 11.563 5.206 1.927 9.11 0.643 11.713-3.854l39.075-71.366c34.529 15.437 71.011 23.156 109.444 23.156s74.915-7.719 109.444-23.156l39.075 71.366c2.605 4.497 6.182 5.781 10.739 3.854 4.55-2.57 5.53-6.424 2.925-11.563l-38.097-70.402zM896 550.832v-231.504c0-15.437-5.542-28.614-16.627-39.533-11.078-10.925-24.429-16.39-40.045-16.41-14.989 0-28.013 5.466-39.078 16.41-11.059 10.938-16.602 24.122-16.621 39.533v231.504c0 15.437 5.542 28.296 16.621 38.573 11.085 10.278 24.109 15.749 39.078 16.412 15.635 0 28.986-5.471 40.045-16.412 11.066-10.94 16.608-23.798 16.627-38.573z" />
<glyph unicode="&#xe907;" glyph-name="angle-down-double" d="M495.6 5.254c4.118-4.115 10.008-5.754 16.399-5.126 6.39-0.627 12.28 1.011 16.398 5.126l426.348 426.348c9.056 9.056 6.118 26.676-6.56 39.355l-45.914 45.914c-12.678 12.679-30.304 15.615-39.36 6.559l-350.913-350.918-350.916 350.918c-9.057 9.057-26.676 6.12-39.355-6.559l-45.914-45.914c-12.679-12.679-15.615-30.299-6.559-39.355l426.346-426.348zM511.999 539.827l350.913 350.916c9.056 9.056 26.682 6.12 39.36-6.559l45.914-45.914c12.678-12.678 15.616-30.298 6.56-39.355l-426.348-426.345c-4.118-4.118-10.008-5.757-16.398-5.126-6.391-0.63-12.281 1.007-16.399 5.126l-426.346 426.345c-9.056 9.057-6.119 26.676 6.559 39.355l45.914 45.914c12.678 12.679 30.298 15.615 39.355 6.559l350.916-350.916z" />
<glyph unicode="&#xe908;" glyph-name="angle-down-thin" d="M119.697 693.818c-12.742 13.576-33.4 13.576-46.141 0s-12.741-35.587 0-49.164l415.27-442.472c6.377-6.797 14.736-10.189 23.094-10.182 8.412-0.051 16.837 3.347 23.255 10.182l415.27 442.472c12.742 13.576 12.742 35.587 0 49.164s-33.402 13.576-46.144 0l-392.301-418.003-392.303 418.003z" />
<glyph unicode="&#xe909;" glyph-name="angle-down" d="M495.6 197.094c4.118-3.994 10.008-5.581 16.399-4.966 6.39-0.614 12.28 0.973 16.398 4.966l426.348 412.884c9.056 8.771 6.118 25.834-6.56 38.113l-45.914 44.465c-12.678 12.278-30.304 15.123-39.36 6.352l-350.913-339.839-350.916 339.839c-9.057 8.771-26.676 5.926-39.355-6.352l-45.914-44.465c-12.679-12.279-15.615-29.343-6.559-38.113l426.346-412.884z" />
<glyph unicode="&#xe90a;" glyph-name="angle-left-double" d="M69.234 464.41c-4.119-4.118-5.757-10.008-5.126-16.399-0.63-6.39 1.008-12.28 5.126-16.398l426.345-426.345c9.057-9.056 26.676-6.118 39.355 6.56l45.914 45.914c12.679 12.678 15.615 30.298 6.559 39.354l-350.916 350.916 350.916 350.916c9.056 9.056 6.12 26.676-6.559 39.355l-45.914 45.914c-12.679 12.679-30.299 15.615-39.355 6.559l-426.345-426.346zM603.804 448.011l350.916-350.916c9.056-9.056 6.118-26.675-6.56-39.354l-45.914-45.914c-12.678-12.678-30.298-15.616-39.354-6.56l-426.347 426.345c-4.118 4.118-5.757 10.008-5.126 16.398-0.63 6.391 1.007 12.281 5.126 16.399l426.347 426.346c9.056 9.056 26.675 6.119 39.354-6.559l45.914-45.914c12.678-12.678 15.616-30.299 6.56-39.355l-350.916-350.916z" />
<glyph unicode="&#xe90b;" glyph-name="angle-left-thin" d="M708.653 9.555c13.574-12.742 35.584-12.742 49.165 0 13.574 12.742 13.574 33.408 0 46.15l-417.948 392.293 417.948 392.298c13.574 12.743 13.574 33.403 0 46.146s-35.584 12.743-49.165 0l-442.467-415.314c-6.557-6.155-9.948-14.156-10.17-22.22-0.271-8.669 3.117-17.421 10.166-24.038l442.471-415.316z" />
<glyph unicode="&#xe90c;" glyph-name="angle-left" d="M605.038 9.427c12.31-12.685 32.271-12.685 44.581 0l45.075 46.419c12.307 12.678 12.307 33.242 0 45.92l-336.184 346.252 336.145 346.217c12.314 12.68 12.314 33.238 0 45.918l-45.069 46.422c-12.313 12.68-32.273 12.68-44.584 0.001l-355.873-366.535c-0.938-0.767-1.843-1.597-2.711-2.491l-45.073-46.423c-5.341-5.501-8.365-12.486-9.071-19.667-1.028-9.473 1.984-19.323 9.037-26.588l45.073-46.423c0.966-0.995 1.98-1.912 3.033-2.751l355.621-366.272z" />
<glyph unicode="&#xe90d;" glyph-name="angle-right-double" d="M954.746 431.6c4.115 4.119 5.754 10.009 5.126 16.399 0.627 6.39-1.011 12.28-5.126 16.399l-426.348 426.345c-9.056 9.056-26.676 6.12-39.355-6.559l-45.914-45.914c-12.678-12.679-15.615-30.299-6.559-39.355l350.918-350.916-350.918-350.917c-9.057-9.056-6.12-26.675 6.559-39.354l45.914-45.914c12.679-12.678 30.299-15.616 39.355-6.56l426.348 426.346zM420.173 447.999l-350.916 350.916c-9.056 9.056-6.119 26.676 6.559 39.355l45.914 45.914c12.679 12.679 30.298 15.616 39.355 6.559l426.345-426.345c4.118-4.119 5.757-10.008 5.126-16.399 0.63-6.39-1.007-12.28-5.126-16.399l-426.345-426.346c-9.057-9.056-26.676-6.118-39.355 6.56l-45.914 45.914c-12.679 12.678-15.615 30.298-6.559 39.354l350.916 350.917z" />
<glyph unicode="&#xe90e;" glyph-name="angle-right-thin" d="M315.348 886.443c-13.576 12.743-35.587 12.743-49.163 0s-13.576-33.403 0-46.146l417.942-392.296-417.946-392.296c-13.576-12.742-13.576-33.408 0-46.15s35.587-12.742 49.164 0l442.472 415.316c6.554 6.155 9.946 14.156 10.17 22.22 0.269 8.669-3.117 17.421-10.17 24.038l-442.469 415.314z" />
<glyph unicode="&#xe90f;" glyph-name="angle-right" d="M418.962 886.576c-12.31 12.68-32.271 12.68-44.582 0l-45.073-46.423c-12.311-12.68-12.311-33.238 0-45.917l336.184-346.253-336.149-346.216c-12.311-12.678-12.311-33.242 0-45.92l45.073-46.419c12.311-12.685 32.271-12.685 44.582 0l355.876 366.532c0.934 0.768 1.843 1.598 2.707 2.492l45.075 46.423c5.338 5.501 8.365 12.486 9.069 19.666 1.030 9.473-1.984 19.324-9.037 26.588l-45.069 46.422c-0.966 0.996-1.984 1.913-3.034 2.752l-355.624 366.274z" />
<glyph unicode="&#xe910;" glyph-name="angle-up-double" d="M528.4 890.743c-4.118 4.118-10.008 5.757-16.399 5.126-6.39 0.631-12.28-1.007-16.398-5.126l-426.346-426.346c-9.056-9.056-6.119-26.676 6.559-39.355l45.914-45.914c12.678-12.678 30.298-15.615 39.355-6.559l350.916 350.916 350.917-350.916c9.056-9.057 26.675-6.12 39.354 6.559l45.914 45.914c12.678 12.679 15.616 30.299 6.56 39.355l-426.346 426.346zM512.001 356.173l-350.916-350.918c-9.057-9.056-26.676-6.118-39.355 6.56l-45.914 45.914c-12.679 12.678-15.615 30.304-6.559 39.36l426.346 426.342c4.118 4.118 10.008 5.757 16.398 5.126 6.391 0.631 12.281-1.007 16.399-5.126l426.346-426.342c9.056-9.056 6.118-26.682-6.56-39.36l-45.914-45.914c-12.678-12.678-30.298-15.616-39.354-6.56l-350.917 350.918z" />
<glyph unicode="&#xe911;" glyph-name="angle-up-thin" d="M904.301 202.182c12.742-13.574 33.402-13.574 46.144 0s12.742 35.584 0 49.165l-415.27 442.47c-6.377 6.794-14.736 10.188-23.094 10.182-8.412 0.051-16.837-3.343-23.255-10.181l-415.269-442.471c-12.742-13.574-12.742-35.59 0-49.165s33.399-13.574 46.141 0l392.303 418.001 392.301-418.001z" />
<glyph unicode="&#xe912;" glyph-name="angle-up" d="M528.4 698.909c-4.118 3.988-10.008 5.575-16.399 4.964-6.39 0.611-12.28-0.976-16.398-4.964l-426.346-412.886c-9.056-8.774-6.119-25.837 6.559-38.112l45.914-44.467c12.678-12.282 30.298-15.123 39.355-6.349l350.916 339.836 350.917-339.836c9.056-8.774 26.675-5.933 39.354 6.349l45.914 44.467c12.678 12.275 15.616 29.338 6.56 38.112l-426.346 412.886z" />
<glyph unicode="&#xe913;" glyph-name="antutu" d="M340.591 274.675c7.135-1.837 14.396-3.686 21.738-5.555 37.499-9.549 77.125-19.648 113.048-31.098-6.849-21.171-26.771-40.704-49.806-36.966-33.546 2.131-56.39 33.978-75.543 60.678-3.24 4.518-6.375 8.89-9.437 12.941zM682.189 270.125c-44.204-9.344-92.57-21.6-136.15-32.806 6.226-19.917 21.79-42.33 43.58-41.088 35.375-2.598 60.18 30.739 80.82 58.483 4.064 5.459 7.962 10.701 11.75 15.411zM663.706 775.221c14.317-23.658 19.296-51.050 17.427-78.444 23.040 19.3 36.736 46.070 46.694 73.463 89.651-80.934 162.49-189.262 172.454-312.531 1.869-45.448 3.731-90.895-5.606-135.72-9.978-52.128-31.814-102.278-61.99-146.054l-3.034-4.966-0.563-0.928-0.813-1.35-0.749-0.954c-61.914-78.502-145.92-146.95-249.706-162.97-140.148-23.738-278.298 43.642-369.275 148.166l-0.598 0.691-0.906 1.261-1.075 1.485c-0.918 1.274-2.201 3.034-3.66 5.024l-1.581 2.144c-2.090 2.675-4.138 5.389-6.144 8.122l-1.391 1.76 0.067 0.058c-82.329 113.709-93.309 271.942-31.969 396.918 19.3 38.599 42.957 75.953 75.331 105.214 1.868-29.884 25.525-54.786 56.654-50.428 1.245 85.915 52.918 166.226 125.137 211.674-11.206-39.222-1.245-84.047 28.638-111.44 56.031 36.109 77.821 107.082 69.105 170.584 56.654-28.638 114.553-64.125 147.551-120.779zM805.184 204.602c-28.493 63.834-77.626 118.097-139.61 151.63 9.958 61.635 18.054 125.759 3.731 188.016-4.358 21.167-19.296 42.335-42.333 43.58-23.658 1.868-59.144 4.358-69.105-23.035-6.827-27.308 7.141-53.576 20.051-77.854 1.218-2.29 2.426-4.562 3.606-6.816 18.054-31.751 28.016-67.237 34.864-102.724-65.37 18.677-135.72 19.3-199.845-3.113 8.093 56.654 14.319 115.176 0.623 171.83-4.358 21.167-19.922 42.335-43.58 42.957l-2.022 0.11c-22.835 1.256-53.107 2.922-64.593-20.655-9.284-27.853 6.045-56.321 19.071-80.51l0.228-0.424c24.28-41.090 36.109-87.782 42.335-134.476-63.215-37.004-113.277-95.218-139.33-163.442 1.431-1.907 2.824-3.789 4.063-5.478 1.527-2.074 2.868-3.917 3.827-5.248l1.010-1.395c84.548-96.755 209.857-155.763 333.345-134.797l0.295 0.051c90.008 13.85 165.996 73.67 224.735 147.853l0.173 0.288 2.118 3.469c1.709 2.79 4 6.49 6.342 10.182z" />
<glyph unicode="&#xe914;" glyph-name="apple-airtag" horiz-adv-x="964" d="M229.908 701.015c-59.934-65.999-80.194-123.537-81.038-224.228 0-72.768 2.532-85.46 27.013-137.072 101.296-214.92 380.708-263.15 544.47-93.925 118.182 121.845 128.307 308.842 23.636 441.686-86.1 108.306-232.983 153.998-364.669 111.691-64.155-21.153-99.609-43.999-149.413-98.152zM374.78 544.165c13.151 23.916 36.824 38.791 61.822 39.114h0.657c10.268 0 19.948-3.759 28.761-7.181l1.494-0.579c6.581-2.906 12.493-5.167 16.775-5.167s9.865 2.261 16.446 5.167l0.443 0.173c9.786 3.845 21.774 8.555 34.082 8.555h4.928c10.523-0.646 37.163-4.521 54.585-31.030l0.328-1.938-0.985-1.614-0.328-0.323c-4.928-3.229-30.254-21.010-29.926-54.947 0.328-42.020 33.54-57.217 37.492-58.832 1.312-0.646 1.643-1.938 1.312-3.229v-0.323l-0.108-0.318c-2.371-7.016-8.299-24.53-20.278-42.994l-0.098-0.148c-11.485-17.423-24.623-37.351-46.264-37.995-9.866 0-16.775 2.903-23.345 6.144l-0.733 0.325c-6.364 2.817-13.149 5.82-23.598 5.82-11.508 0-18.746-3.229-25.645-6.47-6.252-2.903-12.822-5.819-21.703-6.144h-0.985c-19.075 0-32.882 18.75-46.69 39.437-27.626 41.374-43.426 109.57-18.438 154.496zM540.188 656.975c0.985 0.323 2.3-0.969 2.3-2.261 1.971-16.489-3.942-35.228-15.451-49.78-11.18-13.896-26.969-22.624-42.091-22.624l-2.956 0.323c-1.314 0-1.971 0.969-2.3 1.937-2.3 19.072 6.581 37.499 16.118 48.811 10.851 13.25 28.93 22.948 44.381 23.594zM60.235 481.023c0 183.612 113.959 337.61 295.449 399.379 65.843 22.846 159.543 25.384 230.451 6.769 211.037-54.999 350.319-270.765 310.642-482.3-47.273-254.691-310.642-409.532-553.755-325.763-169.673 58.38-282.787 219.148-282.787 401.916zM825.025 402.331c43.899 171.767-64.994 358.764-239.734 412.917-93.7 28.768-185.711 20.307-272.657-26.231-144.348-77.845-216.944-252.996-169.672-411.225 79.349-262.304 405.187-340.146 591.741-142.153 48.959 51.616 72.596 94.768 90.323 166.691z" />
<glyph unicode="&#xe915;" glyph-name="apple-business" horiz-adv-x="964" d="M756.79 735.757c5.909 2.629 14.673 6.973 21.637 10.631 6.969 3.544 7.602 3.544 11.511-0.914 6.439-7.316 11.824-13.946 14.354-17.947 1.373-2.172 2.849-4.23 3.168-4.573 1.373-1.143 11.824-18.633 19.107-31.78 4.012-7.316 12.457-24.463 18.685-37.952 10.77-23.206 13.095-28.693 19.848-45.155 1.482-3.773 3.59-8.917 4.644-11.431 1.060-2.515 6.018-15.89 11.089-29.722 4.957-13.832 9.499-26.178 10.023-27.436 3.066-8.002 12.674-37.724 12.674-39.325 0-0.571-1.271-1.257-2.855-1.6-1.687-0.343-6.228-1.715-10.342-3.087-4.012-1.372-12.035-4.001-17.631-5.83-5.698-1.829-15.203-4.916-21.112-6.859-1.675-0.551-3.174-1.066-4.512-1.526-5.361-1.842-8.234-2.83-10.192-1.897-2.271 1.079-3.313 4.726-5.566 12.593-0.47 1.634-0.988 3.45-1.584 5.463-3.168 10.517-6.018 19.776-6.337 20.348-0.422 0.685-1.578 4.001-2.638 7.431-1.054 3.429-2.53 7.887-3.271 9.717-0.741 1.943-3.379 9.145-5.807 16.004-2.427 6.973-5.066 14.175-5.909 16.233-0.849 1.944-1.482 3.887-1.482 4.344s-0.632 2.4-1.476 4.344c-0.283 0.785-0.885 2.402-1.681 4.52l-0.024 0.065c-1.283 3.428-3.054 8.163-4.734 12.79-10.451 28.35-26.498 59.902-40.647 79.449-11.818 16.576-27.341 32.58-37.472 38.982l-4.753 2.972 8.656 4.344c4.271 2.112 9.035 4.401 11.415 5.543l0.831 0.401c1.584 0.666 5.138 2.441 8.541 4.139l2.018 1.005c3.903 1.943 9.186 4.458 11.824 5.716zM430.056 720.888c18.157 7.088 23.753 9.031 31.67 10.632 12.14 2.515 19.53 1.829 53.312-5.144 2.639-0.572 7.495-1.6 10.874-2.287 3.273-0.572 8.656-1.6 11.824-2.287 3.167-0.571 8.445-1.6 11.612-2.286 3.167-0.572 8.446-1.6 11.612-2.287 3.167-0.572 8.446-1.6 11.613-2.286 8.868-1.715 15.835-3.087 28.503-5.716 2.488-0.485 5.609-1.108 8.885-1.762 5.192-1.037 10.788-2.153 14.866-2.924 3.223-0.664 6.668-1.356 9.662-1.957 3.186-0.639 5.873-1.178 7.228-1.472 17.107-3.658 42.020-4.115 50.676-1.029 4.325 1.6 9.288 4.115 11.716 5.945 1.373 1.029 2.958 0.685 7.602-1.715 10.872-5.83 21.534-18.29 35.786-41.954 7.921-13.032 9.288-15.547 18.685-34.294 4.644-9.146 18.053-38.41 18.053-39.325 0-0.229 1.795-4.801 4.12-10.060 1.958-4.543 5.15-12.474 7.614-18.596l0.934-2.323 1.349-3.489c1.958-5.089 3.771-9.787 4.457-11.371 3.698-8.917 19.534-53.157 19.534-54.643 0-0.572-8.662-5.487-19.215-11.089l-19.317-10.174-15.625-16.576c-8.553-9.146-21.221-22.063-28.082-28.579l-12.565-12.118-2.741 5.716c-4.963 10.289-19.956 29.836-35.683 46.412-8.656 9.259-18.053 16.461-81.607 62.416-32.845 23.777-73.365 53.171-98.944 71.726l-13.483 9.78c-22.38 16.233-42.333 30.18-44.444 30.98-6.651 2.515-25.97-1.6-53.206-11.431-18.897-6.745-20.164-7.431-25.864-13.832-15.518-17.49-65.979-41.839-86.459-41.725-21.325 0.114-32.832 7.316-32.832 20.348 0 5.487 0.317 6.287 6.862 14.29 9.818 12.118 44.972 47.326 67.986 68.018 4.433 3.886 10.24 9.145 12.879 11.66 4.751 4.344 7.179 5.487 26.814 12.803 5.278 1.943 14.779 5.487 21.113 8.002 3.742 1.395 8.518 3.214 12.877 4.875 3.143 1.197 6.070 2.312 8.237 3.126 3.58 1.318 9.101 3.424 14.26 5.392l6.854 2.61zM129.47 685.826c-1.011-3.54-2.083-7.291-2.919-10.308-1.147-3.806-3.027-10.411-4.875-16.907l-2.514-8.814c-2.428-8.458-4.856-16.918-5.384-18.861l-4.222-14.861c-1.795-6.287-3.589-12.689-4.012-14.29l-0.175-0.587c-0.882-2.966-1.808-6.081-6.265-22.276-1.794-6.63-3.695-13.26-4.222-14.861s-2.428-8.231-4.223-14.861c-1.794-6.63-3.695-13.26-4.222-14.861-0.455-1.38-1.538-5.396-2.641-9.481l-0.526-1.95c-0.725-2.682-1.519-5.515-2.145-7.747-0.467-1.668-0.841-3-1.022-3.685-0.738-2.401-4.328-14.747-8.34-29.15l-0.602-2.126c-0.81-2.878-2.163-7.683-3.515-12.163-6.862-24.234-7.812-27.664-7.284-29.036 0.317-0.801 2.64-1.829 5.173-2.172 2.428-0.343 7.39-1.258 10.873-1.943s8.973-1.715 12.14-2.287c3.167-0.572 8.656-1.6 12.14-2.287s8.973-1.714 12.14-2.286c1.583-0.286 3.695-0.686 5.806-1.086s4.222-0.801 5.806-1.086c10.24-2.058 31.037-5.945 33.253-6.173 1.9-0.229 2.217 0.914 3.273 12.346 1.373 14.061 2.64 22.863 5.807 39.896 1.267 6.287 2.85 14.975 3.589 19.205 0.844 4.23 2.217 10.974 3.062 15.090 0.95 4.115 2.428 10.745 3.167 14.747 2.006 9.374 16.996 73.847 19.002 81.963 0.846 3.435 2.535 10.296 3.695 15.204 5.278 21.377 7.601 30.636 10.557 41.954l0.757 2.838c1.957 7.315 2.761 10.317 1.622 12.030-0.792 1.192-2.525 1.759-5.465 2.722l-1.77 0.585c-4.539 1.486-21.747 7.544-38.215 13.489-16.574 5.83-30.615 10.631-31.354 10.631-0.844 0-2.323-3.544-3.589-8.231-0.598-2.157-1.456-5.161-2.359-8.325zM190.843 514.894c14.568 75.219 26.919 128.948 33.042 143.809 1.584 3.886 2.428 4.801 3.801 4.23 13.196-5.83 27.87-9.831 39.588-10.974 7.073-0.572 15.624-1.486 19.107-1.944l6.123-0.8-24.914-26.064-24.914-26.178v-6.402c0-16.804 14.252-31.093 30.931-31.093 16.363 0 45.394 10.288 66.613 23.663 10.451 6.516 22.064 14.632 27.025 18.634 4.54 3.773 32.726 15.889 48.245 20.691 10.978 3.43 11.718 3.544 19.846 2.287 4.645-0.686 9.712-1.258 11.296-1.258 3.695 0 226.864-160.956 235.098-169.53 6.758-7.087 21.432-25.492 26.708-33.38 8.445-12.689 10.872-21.605 10.872-38.867-0.102-11.889-0.313-13.032-3.59-20.348-4.012-8.914-13.932-20.461-20.691-23.78-4.855-2.397-11.505-2.741-17.836-0.91-6.656 1.94-20.48 9.487-28.293 15.547l-2.217 1.687c-4.596 3.506-12.282 9.364-18.691 14.087l-7.005 5.248c-5.457 4.079-10.547 7.885-12.836 9.727l-4.078 3.063c-5.616 4.229-13.733 10.338-25.166 18.772l-5.278 4.001 6.334-6.173c23.226-22.292 42.754-45.496 48.56-58.073 2.958-6.403 5.807-17.721 5.807-23.203 0-12.005-7.493-32.81-14.354-39.9-8.873-9.144-23.122-13.487-36.001-11.089-7.707 1.373-9.606 2.861-25.758 18.751-3.8 3.771-12.246 11.999-18.896 18.287-6.545 6.289-16.258 15.661-21.536 20.92-8.868 8.692-13.513 11.776-15.096 10.059-0.317-0.343 13.513-16.233 30.826-35.208s32.304-36.123 33.359-37.954c4.329-7.77 3.484-18.631-2.111-25.034-6.018-7.090-14.674-9.945-30.72-9.945h-12.246l-10.451 8.686c-5.806 4.686-11.507 9.487-12.668 10.517-0.986 0.97-3.039 2.602-4.864 4.054l-0.942 0.747c-2.006 1.488-3.906 3.090-4.222 3.433s-4.539 4-9.502 7.999c-4.962 4-9.184 7.662-9.501 8.005s-2.217 1.94-4.222 3.427c-2.006 1.488-3.906 3.198-4.222 3.656-0.739 1.030-24.809 12.348-26.392 12.348-2.745 0-0.211-2.403 10.345-9.945 17.841-12.92 44.866-36.123 53.945-46.526l3.589-4.006-3.061-5.481c-5.701-10.065-21.536-15.547-38.638-13.607-6.334 0.801-7.917 1.488-14.462 6.746-4.117 3.313-15.096 11.776-24.492 18.974-15.835 12.119-17.102 13.378-19.425 19.095-5.384 13.258-16.891 22.173-28.503 22.173-3.167 0-5.806 0.229-5.806 0.458 0 0.145 0.417 1.554 1.014 3.572l1.202 4.090c1.478 4.572 2.534 11.433 2.745 18.287 0.528 10.517 0.422 11.318-2.745 18.522-4.645 10.517-10.978 15.776-24.069 19.661-8.129 2.512-22.38 2.060-27.659-0.916-4.751-2.626-5.384-2.512-5.384 0.916 0 8.228-8.235 24.12-14.991 28.693-5.595 3.886-16.574 7.316-23.225 7.316-10.874 0-20.691-6.63-24.914-16.804l-2.006-4.916-17.313 13.947c-9.502 7.659-23.753 19.090-31.565 25.263-3.025 2.435-6.24 5.007-9.229 7.397-4.728 3.782-8.888 7.11-10.829 8.721-3.167 2.515-5.911 4.688-6.123 4.801-0.316 0.114 12.668 71.561 14.569 79.906 0.528 2.515 1.9 9.488 3.062 15.433zM182.713 383.426c-2.533-11.318-3.061-27.321-1.161-34.182 2.111-7.541 6.334-12.8 13.618-16.92 6.545-3.771 7.284-3.885 16.891-3.542 14.674 0.572 19.847 3.313 24.809 13.035 2.006 4.114 3.695 7.999 3.695 8.8s-2.639 3.656-5.806 6.517c-3.273 2.856-8.34 7.314-11.401 10.058-12.351 10.86-24.069 20.119-30.615 24.121-6.862 4.115-7.495 3.658-10.029-7.888zM254.287 360.343c0 1.714 4.856 6.058 8.023 7.087 4.329 1.372 4.751 1.372 13.090-0.572 16.997-3.886 24.597-11.428 27.237-26.975 1.372-7.662 0.739-10.86-4.962-25.606-9.712-25.269-12.668-29.612-21.958-33.268-4.329-1.602-12.773-2.060-18.369-0.801-4.539 0.916-16.468 13.716-19.742 21.034-4.539 10.174-2.427 25.492 5.384 38.526 2.744 4.572 4.962 8.571 4.962 8.915s1.478 2.855 3.167 5.602c1.794 2.741 3.167 5.486 3.167 6.057zM320.267 337.83c-3.167-1.488-4.645-3.662-14.569-21.835-7.6-13.95-9.29-17.836-10.345-24.468-2.111-13.716 0.422-22.287 10.029-33.605 5.912-6.975 10.768-9.373 18.686-9.373 8.656 0 13.723 1.825 19.002 6.626 4.539 4.235 6.757 8.806 14.146 28.811 2.217 5.945 4.433 11.318 4.962 12.005 1.689 2.054 0.844 14.173-1.373 20.691-2.533 7.313-8.656 14.631-14.462 17.257-9.079 4.12-21.324 5.945-26.075 3.891zM350.773 252.892c2.323 4.915 8.023 10.174 14.357 13.264 13.407 6.74 23.858 1.482 38.321-19.095 1.584-2.283 5.384-6.289 8.445-8.8 3.062-2.518 9.29-7.662 13.935-11.547s8.446-7.204 8.446-7.547c0-0.91-15.413-6.855-24.809-9.716-5.595-1.711-11.295-2.397-19.529-2.512l-11.718-0.114-7.178 6.855c-2.493 2.349-5.718 5.397-8.588 8.108-1.75 1.656-3.368 3.186-4.608 4.355-3.273 3.090-6.439 6.746-7.178 8.005-1.795 3.313-1.689 14.974 0.105 18.745z" />
<glyph unicode="&#xe916;" glyph-name="apple-cable" d="M272.717 848.125c52.392 61.546 161.668 64.514 216.479 4.48 25.577-27.301 41.908-64.234 41.044-101.588-0.317-202.699 0.115-405.454-0.23-608.207 0.72-20.333-0.432-43.149 13.652-59.757 41.043-58.438 138.398-61.126 185.374-8.346 12.614 16.218 21.254 35.814 20.275 56.538 0.32 123.206 0.115 246.492 0.058 369.696-25.402 1.96-54.579-5.18-76.384 11.256-11.635 7.56-21.139 18.004-28.198 29.737-7.2 19.069-4.634 39.873-5.126 59.754 0.78 41.889-0.922 83.779 0.55 125.612 0.058 30.745 30.323 48.273 54.202 62.022l0.378 74.651c-0.058 22.653 8.435 29.513 31.194 30.269l85.773-0.42c19.846 0 27.533-7.392 27.533-20.077l0.806-84.955c22.758-12.32 46.72-26.516 53.6-50.822 4.211-27.357 1.21-55.106 1.958-82.631-0.864-33.545 1.965-67.258-1.35-100.635-6.714-23.605-27.277-42.114-50.061-51.13-19.066-3.696-38.682-1.96-57.978-2.492-0.544-123.512-0.173-247.077-0.115-370.591 1.357-49.818-35.078-94.982-79.725-115.648-69.069-34.016-165.068-7.866-200.35 61.126-10.542 16.269-12.299 35.93-12.5 54.771-0.058 206.816 0.49 413.603-0.23 620.418 1.642 40.63-19.989 84.059-60.37 99.096-47.928 17.809-114.288 10.5-142.774-35.925-16.936-23.773-15.294-53.986-15.899-81.567 0.432-112.788-0.49-225.576 0.432-338.364 22.61-0.728 46.17 2.324 67.916-5.18 21.631-12.796 42.397-34.273 41.302-60.706 0.115-52.14 0.432-104.274-0.115-156.415-1.267-37.242-38.624-60.339-72.495-67.315-0.865-34.554-0.115-69.158-0.663-103.795-11.953 0.051-23.82 0-35.743-0.173-0.979 35.757-0.317 71.571-0.605 107.302-12.011 0-24.051 0-36.118 0.109-0.72-35.757 0-71.482-0.605-107.238-11.953 0.051-23.82 0-35.744-0.173-0.864 34.669-0.547 69.363-0.374 103.968-28.745 5.293-58.354 20.333-69.818 48.077-5.414 20.077-3.11 41.107-3.542 61.606 0.72 39.93-0.979 79.827 0.605 119.703 0 24.612 19.932 43.485 40.006 55.357 22.178 6.973 45.998 4.228 68.954 5.012 0.374 120.768 0.058 241.592 0.115 362.388-0.662 33.545 13.883 65.466 34.966 91.283l-0.058-0.084z" />
<glyph unicode="&#xe917;" glyph-name="apple-cover" horiz-adv-x="964" d="M643.789 899.458c-7.505-0.129-15.107-0.259-22.034-3.565-28.11-11.701-56.584-22.347-85.162-32.915-2.812-1.145-5.722-2.188-8.649-3.236-11.151-3.995-22.551-8.081-29.791-18.268-2.889-12.084-2.697-24.489-2.505-36.881 0.072-4.659 0.145-9.316 0.053-13.954 0.052-213.511 0.077-427.075-0.052-640.587 0.054-1.307 0.086-2.656 0.12-4.036 0.255-10.571 0.548-22.703 10.619-28.274 12.145-7.168 25.071-12.728 37.992-18.293 7.841-3.373 15.682-6.752 23.345-10.481 9.541-3.765 18.819-8.349 28.099-12.939 16.382-8.096 32.772-16.191 50.638-19.793 1.060 8.933 2.090 17.866 2.217 26.853-0.102 263.029-0.181 526.031 0 789.060-0.102 9.118-0.747 18.263-1.391 27.381-1.163-0.032-2.331-0.052-3.5-0.072zM366.52 858.102c-11.436 0.712-22.691-7.51-23.104-19.923-2.061-26.302-1.675-52.716-1.287-79.144 0.146-9.981 0.292-19.961 0.306-29.93 6.635-0.255 13.322-0.132 20.017-0.008 14.718 0.271 29.471 0.543 43.772-3.206 13.915-10.094 21.453-27.144 19.929-44.642 0.142-87.783 0.116-175.572 0.090-263.355-0.025-87.78-0.051-175.555 0.090-263.311 1.089-13.023-4.784-24.48-10.507-35.635-1.061-2.066-2.117-4.126-3.123-6.186 17.349-0.265 34.709-0.229 52.066-0.187 10.174 0.018 20.347 0.042 30.518 0.006-7.461 11.065-14.482 23.269-13.424 37.316-0.026 111.628-0.026 223.267-0.026 334.911s0 223.295-0.026 334.952c-1.161 14.494 6.015 27.064 13.528 38.528-14.114-0.017-28.23 0.034-42.347 0.084-28.825 0.104-57.654 0.208-86.472-0.269zM738.28 858.365c-25.166 0.049-50.339 0.098-75.529-0.315-0.59-19.080-0.645-38.133 0.054-57.212 18.607-0.404 37.219-0.255 55.826-0.107 27.552 0.22 55.091 0.441 82.595-1.132 0.337-209.716 0.361-419.407 0-629.151-22.371-0.398-44.737-0.307-67.102-0.223-23.793 0.096-47.586 0.187-71.397-0.301-0.596-19.083-0.596-38.135 0.102-57.211 51.194-0.187 102.382-0.295 153.528 0 14.92-2.060 28.624 12.565 26.769 27.774 0.042 95.63 0.024 191.253 0.012 286.874-0.024 132.389-0.042 264.77 0.090 397.142 0.102 8.881-0.078 18.579-7.59 24.456-6.168 9.277-16.986 9.358-27.010 9.434-2.108 0.016-4.174 0.031-6.162 0.132-21.396-0.242-42.791-0.201-64.187-0.159zM172.428 715.132c-8.92 0.005-17.851 0.010-26.629-1.918-13.914-3.637-26.874-16.181-25.119-32.098-0.232-178.62-0.361-357.267 0.104-535.889-1.937-20.661 19.955-33.256 37.613-32.304 30.475-0.024 60.95-0.018 91.422-0.012 40.618 0.006 81.233 0.018 121.839-0.042 19.775-1.476 43.318 14.968 40.711 37.237 0 47.851-0.005 95.696-0.011 143.547-0.015 127.596-0.031 255.184 0.063 382.772 2.091 22.031-20.291 39.819-40.479 38.422-34.053 0.276-68.093 0.227-102.133 0.178-31.015-0.045-62.030-0.089-93.057 0.112-1.44-0.008-2.882-0.007-4.323-0.006zM167.775 684.177c-11.643 0-21.082-9.439-21.082-21.082s9.439-21.082 21.082-21.082h35.282c11.643 0 21.082 9.439 21.082 21.082s-9.439 21.082-21.082 21.082h-35.282z" />
<glyph unicode="&#xe918;" glyph-name="apple-imac" d="M885.357 864h-746.686c-41.174 0-74.671-33.73-74.671-75.188v-526.342c0-41.459 33.497-75.187 74.671-75.187h261.413c-0.775-29.984-14.465-82.861-35.84-105.53-7.832-8.294-16.8-12.173-28.25-12.173-10.313 0-18.661-8.397-18.661-18.79 0-10.387 8.348-18.79 18.661-18.79h336.006c10.31 0 18.662 8.403 18.662 18.79 0 10.394-8.352 18.79-18.662 18.79-11.45 0-20.416 3.853-28.224 12.147-21.298 22.541-19.033 75.494-19.834 105.53h261.389c41.171 0 74.669 33.728 74.669 75.187v526.341c0 41.459-33.472 75.214-74.643 75.214zM512 224.787c-20.626 0-37.452 16.928-37.452 37.709s16.8 37.709 37.452 37.709c20.626 0 37.452-16.928 37.452-37.709s-16.8-37.709-37.452-37.709zM138.62 352l-10.62 451.128h757.306l0.026-451.128h-746.712z" />
<glyph unicode="&#xe919;" glyph-name="apple-ipad" d="M848.32 880.344c-4.909 4.969-10.752 8.912-17.203 11.6s-13.37 4.066-20.358 4.056h-597.416c-14.139-0.026-27.692-5.647-37.69-15.631s-15.626-23.517-15.652-37.637v-789.465c0.026-14.118 5.654-27.654 15.652-37.638s23.551-15.603 37.69-15.629h597.416c14.125 0.026 27.667 5.651 37.651 15.635 9.984 9.99 15.59 23.52 15.59 37.632v789.465c0.032 6.996-1.344 13.928-4.032 20.387-2.694 6.46-6.656 12.316-11.648 17.225zM802.867 76.307c-0.026-0.454-0.224-0.877-0.55-1.19-0.333-0.314-0.768-0.486-1.222-0.48h-578.287c-0.436 0.019-0.849 0.205-1.159 0.512-0.309 0.314-0.493 0.723-0.517 1.158v752.345c0.024 0.436 0.208 0.849 0.517 1.157s0.723 0.493 1.159 0.517h578.088c0.454 0.001 0.89-0.173 1.222-0.484 0.326-0.312 0.525-0.737 0.55-1.19l0.198-752.345z" />
<glyph unicode="&#xe91a;" glyph-name="apple-iphone" d="M659.744 896h-295.489c-20.224 0-39.62-8.209-53.921-22.82s-22.335-34.429-22.335-55.092v-740.173c0-20.666 8.034-40.48 22.335-55.091s33.697-22.822 53.921-22.822h295.489c20.224 0 39.622 8.211 53.92 22.822 14.304 14.611 22.336 34.426 22.336 55.091v740.173c0 20.664-8.032 40.481-22.336 55.092-14.298 14.612-33.696 22.82-53.92 22.82zM688.339 805.516v-711.961c0-7.75-3.014-15.181-8.371-20.659-5.363-5.478-12.64-8.557-20.224-8.557h-295.489c-7.584 0-14.858 3.078-20.22 8.557s-8.376 12.909-8.376 20.659v711.961c0 7.749 3.013 15.181 8.376 20.66s12.636 8.558 20.22 8.558h34.887c1.137-7.459 4.844-14.257 10.455-19.168s12.754-7.612 20.142-7.615h164.426c7.41-0.040 14.586 2.643 20.221 7.559s9.352 11.74 10.472 19.224h34.886c7.584 0 14.861-3.078 20.224-8.558 5.357-5.479 8.371-12.911 8.371-20.66z" />
<glyph unicode="&#xe91b;" glyph-name="apple-keyboard" d="M102.643 370.735l0.308-62.255 61.782 0.154 0.21 61.948-62.3 0.154zM861.088 374.179l-1.133-65.718 61.574 0.211-0.365 65.409-60.077 0.098zM212.458 374.389l-1.19-65.909 602.083 0.205-0.307 65.354-600.585 0.35zM751.795 478.675l-62.246 0.252 0.25-62.258 61.997 0.168v61.838zM643.674 478.675c-20.751 0.672-62.246 0.252-62.246 0.252l0.252-62.258h61.995v62.006zM535.549 478.675l-62.244 0.252 0.252-62.258 61.992 0.168v61.838zM427.427 478.675l-62.243 0.252 0.252-62.258 61.992 0.168v61.838zM319.292 478.675l-62.244 0.252 0.252-62.258 61.264 0.168 0.728 61.838zM794.618 482.552v-65.309l126.912-0.462-0.365 65.45-126.547 0.322zM102.643 482.525v-65.296l108.374-0.448-0.364 65.45-108.010 0.294zM859.494 587.076l0.307-62.314 61.786 0.154 0.205 61.95-62.298 0.21zM751.373 587.076l0.307-62.314 61.786 0.154 0.205 61.95-62.298 0.21zM643.251 587.076l0.307-62.314 61.779 0.154 0.211 61.95-62.298 0.21zM535.129 587.076l0.308-62.314 61.782 0.154 0.21 61.95-62.3 0.21zM427.007 587.076l0.308-62.314 61.782 0.154 0.21 61.95-62.3 0.21zM318.886 587.076l0.308-62.314 61.782 0.154 0.211 61.95-62.3 0.21zM210.764 587.076l0.308-62.314 61.782 0.154 0.21 61.95-62.3 0.21zM102.643 587.076l0.308-62.314 61.782 0.154 0.21 61.95-62.3 0.21zM65.108 672h894.892l-0.307-407.2c1.075-23.744-22.4-42.803-45.261-40.634h-797.944c-15.19-0.922-30.226 4.794-40.11 16.538-14.518 14.112-12.25 54.374-12.25 54.374 0.714 125.608 0.98 376.922 0.98 376.922z" />
<glyph unicode="&#xe91c;" glyph-name="apple-macbook" d="M873.722 263.93v403.021c0.102 4.682-0.704 9.338-2.368 13.686s-4.154 8.3-7.315 11.616c-5.773 6.317-13.619 10.125-21.958 10.662l-2.33 0.181h-654.716c-4.438 0.107-8.852-0.717-12.98-2.425s-7.887-4.263-11.053-7.515c-5.916-5.727-9.661-13.491-10.547-21.868v-407h-86.453v-37.408l1.21-2.17c14.524-24.941 83.514-32.71 102.534-32.71h682.63c18.848 0 93.715 8.134 108.243 32.531l1.382 2.17v37.587l-86.278-0.358zM822.022 649.782v-385.852h-619.697v385.852h619.697z" />
<glyph unicode="&#xe91d;" glyph-name="apple-mouse" d="M512 0c-52.209 0-100.329 12.544-144.446 37.632-44.118 25.082-79.048 59.046-104.851 101.939-25.802 42.867-38.703 89.677-38.703 140.442v335.977c0 50.76 12.901 97.546 38.703 140.439s60.733 76.855 104.851 101.942c44.088 25.086 92.237 37.629 144.446 37.629s100.329-12.543 144.448-37.629c44.090-25.087 79.046-59.048 104.851-101.942 25.798-42.893 38.701-89.679 38.701-140.439v-335.977c0-50.765-12.902-97.549-38.701-140.442-25.805-42.893-60.736-76.858-104.851-101.939-44.090-25.088-92.239-37.632-144.448-37.632zM512.461 727.955c-15.896 0-29.546-5.544-40.95-16.631s-17.105-24.218-17.105-39.366c0-15.175 5.702-28.278 17.105-39.365s25.053-16.631 40.95-16.631c15.896 0 29.402 5.544 40.489 16.631s16.644 24.218 16.644 39.365c0 15.148-5.558 28.278-16.644 39.366s-24.593 16.631-40.489 16.631z" />
<glyph unicode="&#xe91e;" glyph-name="apple-pencil" horiz-adv-x="964" d="M880.315 876.278c-14.993 14.994-34.93 23.251-56.133 23.251-21.209 0-41.141-8.258-56.133-23.251l-53.115-53.114c-0.006-0.004-0.006-0.004-0.006-0.004l-573.045-573.051c-2.109-2.108-4.015-4.415-5.692-6.879l-22.63-33.262c-1.753-2.578-3.415-5.018-4.918-7.463l-0.092 0.060-34.493-54.284c-15.479-24.365-17.968-46.472-7.399-65.711 8.921-16.239 26.21-26.323 45.12-26.323 12.875 0 25.757 4.373 40.538 13.764 0.181 0.114 0.358 0.229 0.536 0.343l93.71 61.314c2.733 1.789 5.277 3.855 7.588 6.168l520.381 520.391c0.012 0.010 0.018 0.016 0.030 0.026l52.64 52.639c0.018 0.016 0.030 0.031 0.042 0.048l53.073 53.070c30.955 30.951 30.955 81.316 0 112.267zM740.924 691.887l-45.002 44.996 52.64 52.639 45.002-44.993-52.64-52.643zM111.774 103.816c-5.765 0-5.353 6.71 2.429 18.956l13.262 20.872 19.979-19.974-20.638-13.499c-6.767-4.307-11.845-6.355-15.032-6.355zM220.512 171.478l-32.758-21.432c-0.815 1.181-1.732 2.313-2.782 3.367l-27.909 27.901c-1.094 1.096-2.274 2.048-3.508 2.885 7.728 11.354 21.958 32.274 21.958 32.274l486.781 486.773 44.99-44.993-486.771-486.776zM846.679 797.648l-19.48-19.484-44.996 44.996 19.48 19.484c6.21 6.212 14.354 9.317 22.498 9.317s16.282-3.105 22.492-9.317c12.433-12.428 12.433-32.572 0.006-44.996z" />
<glyph unicode="&#xe91f;" glyph-name="apple-power" d="M763.84 554.803v-70.842l79.091 0.14v70.030l-79.091 0.672zM183.158 850.465c-16.103-2.801-19.859-30.073-5.86-38.838 13.248-11.34 33.458 6.664 29.401 23.437-2.554 11.229-13.448 18.201-23.541 15.401zM131.619 863.597c8.965 18.34 25.72 33.797 45.504 32.229 104.682 0.112 209.389 0.392 314.070-0.14 21.437 1.372 37.064-18.929 45.179-38.781 3.431-12.992 1.953-26.769 2.253-40.125-0.225-170.218-0.050-340.463-0.1-510.68 1.377-32.058-27.848-60.96-56.298-57.568-47.082-0.141-94.214 0.896-141.346-0.48 4.157-64.205 35.086-125.606 81.316-164.307 39.769-33.094 89.305-51.744 139.142-50.259 108.516-6.47 214.071 93.126 223.863 213.728 0 0-31.13-0.448-47.482 8.678-16.275 9.862-28.275 29.318-27.046 50.458l0.275 128.163c-0.275 25.509 11.546 47.21 39.194 50.822l0.352 61.742c0 0-2.81 24.641 22.534 24.921l59.302-0.28c22.317 0 24.32-16.856 24.32-16.856l0.128-70.31c33.581-5.544 38.79-24.977 38.867-49.786l0.301-128.639c1.152-30.266-16.282-57.062-51.942-57.485-9.043-0.307-27.174-0.25-27.174-0.25-3.654-29.011-11.59-59.533-24.365-86.464-32.71-74.739-95.795-132.365-168.393-152.717-60.931-19.437-127.847-6.778-183.394 25.504-71.399 40.941-122.863 123.878-127.271 213.594-44.001 0.896-88.003 0.141-131.98 0.307-27.798-2.298-55.822 26.099-53.267 57.734-0.125 170.136 0.125 340.269-0.125 510.346 0.275 15.681-1.152 31.921 3.581 46.986v-0.084z" />
<glyph unicode="&#xe920;" glyph-name="apple-tv" d="M959.955 615.781c0 10.699 0 21.398 0 32.097 0 9.018-0.166 18.037-0.39 27.027v-0.001c-0.25 19.708-1.978 39.368-5.178 58.817-3.322 19.485-9.53 38.365-18.426 56.015-18.086 35.444-46.931 64.244-82.406 82.261-17.645 8.895-36.518 15.107-56 18.429-19.437 3.199-39.098 4.932-58.797 5.181-9.018 0.252-18.035 0.364-27.046 0.392-10.701 0-21.395 0-32.115 0h-335.415c-10.696 0-21.392 0-32.088 0-9.016 0-18.032-0.168-27.020-0.392v0c-19.702-0.25-39.357-1.982-58.799-5.181v0c-19.48-3.321-38.355-9.532-56-18.429h-0.001c-35.421-18.067-64.21-46.894-82.236-82.343v0c-8.893-17.652-15.103-36.531-18.424-56.016v0c-3.199-19.448-4.93-39.109-5.18-58.817-0.252-9.018-0.364-18.037-0.392-27.055 0-10.7 0-21.398 0-32.125v-369.145c0-8.403 0.168-16.973 0.392-25.485v0c0.236-19.68 1.949-39.315 5.124-58.733v0c3.32-19.488 9.53-38.368 18.424-56.019 18.077-35.437 46.916-64.237 82.376-82.259 17.647-8.89 36.522-15.104 56-18.426v0c19.442-3.2 39.098-4.934 58.8-5.184 9.016-0.25 18.032-0.365 27.048-0.39 10.696 0 21.392 0 32.116 0h335.55c10.701 0 21.395 0 32.090 0 9.018 0 18.035 0.166 27.021 0.39 19.699 0.25 39.36 1.984 58.797 5.184 19.482 3.322 38.355 9.53 56 18.426v0c35.36 18.074 64.096 46.867 82.099 82.259 8.89 17.658 15.098 36.538 18.426 56.019 3.194 19.45 4.928 39.11 5.178 58.816 0.25 9.018 0.365 18.035 0.39 27.053 0 10.701 0 21.402 0 32.128l0.083 335.506zM340.010 605.306c12.094 14.059 29.145 22.908 47.6 24.703v0c1.321-18.779-4.703-37.337-16.8-51.759v0c-11.64-14.643-29.433-23.028-48.132-22.686-1.138 18.237 5.108 36.164 17.332 49.742v0zM432.746 347.13c-13.496-19.857-27.384-39.213-49.588-39.718-21.42-0.39-28.56 12.719-53.2 12.719s-32.536-12.322-52.78-13.109c-21.42-0.781-37.688 21.064-51.156 40.893-27.776 40.108-48.804 113.152-20.244 162.446 13.451 24.376 38.814 39.79 66.64 40.499 21.028 0.392 40.46-14.004 53.2-14.004s35.308 16.804 61.88 15.096c23.63-0.938 45.478-12.822 59.108-32.153-21.418-13.204-34.592-36.453-34.916-61.617v-0.001c0.221-28.458 17.158-54.123 43.232-65.51-5.164-16.168-12.633-31.506-22.176-45.54v0zM600.157 500.109h-43.4v-126.848c0-19.605 8.624-28.68 27.608-28.68 5.196 0.085 10.383 0.449 15.54 1.092v-35.823c-8.488-1.382-17.078-2.029-25.676-1.933-44.8 0-62.272 17.199-62.272 60.779v131.385h-33.208v35.598h33.208v53.943h44.8v-53.943h43.4v-35.57zM751.891 309.658h-47.603l-80.078 226.021h47.348l56.166-181.631h1.062l56.173 181.631h46.534l-79.603-226.021z" />
<glyph unicode="&#xe921;" glyph-name="apple-watch-material" d="M320 879.709c0 8.997 7.293 16.291 16.291 16.291h351.421c8.992 0 16.288-7.293 16.288-16.291s-7.296-16.291-16.288-16.291h-21.184c-6.298 0-11.398-5.106-11.398-11.404v-395.869c0-67.479-96.596-122.182-164.076-122.182s-122.181 54.703-122.181 122.182v395.869c0 6.298-5.106 11.404-11.404 11.404h-21.178c-8.997 0-16.291 7.293-16.291 16.291zM511.418 676.072c17.994 0 32.582 14.587 32.582 32.582s-14.588 32.582-32.582 32.582c-17.994 0-32.582-14.587-32.582-32.582s14.588-32.582 32.582-32.582zM544 594.618c0-17.995-14.588-32.582-32.582-32.582s-32.582 14.587-32.582 32.582c0 17.994 14.588 32.581 32.582 32.581s32.582-14.587 32.582-32.581zM511.418 448c17.994 0 32.582 14.587 32.582 32.582s-14.588 32.581-32.582 32.581c-17.994 0-32.582-14.587-32.582-32.581s14.588-32.582 32.582-32.582zM370.31 399.128h-1.437v-355.148c0-6.291-5.106-11.398-11.404-11.398h-21.178c-8.997 0-16.291-7.296-16.291-16.294s7.293-16.288 16.291-16.288h351.421c8.992 0 16.288 7.29 16.288 16.288s-7.296 16.294-16.288 16.294h-21.184c-6.298 0-11.398 5.107-11.398 11.398v355.148c-0.832 0-1.542-0.6-1.702-1.416-9.722-50.053-101.855-88.183-162.373-88.183-61.087 0-111.703 38.851-120.744 89.599z" />
<glyph unicode="&#xe922;" glyph-name="apple-watch-screen" d="M748.25 779.94l-30.15 90.524c-5.069 15.26-19.354 25.536-35.424 25.536h-341.351c-16.072 0-30.352-10.276-35.42-25.536l-30.156-90.524c-49.168-12.824-83.524-57.12-83.748-107.94v-448c0.196-50.79 34.58-95.117 83.748-107.942l30.156-90.522c5.068-15.258 19.348-25.536 35.42-25.536h341.351c16.070 0 30.355 10.278 35.424 25.536l30.15 90.522c49.171 12.826 83.526 57.12 83.75 107.942v448c-0.198 50.792-34.579 95.116-83.75 107.94zM757.325 224c0-20.608-16.717-37.325-37.325-37.325h-416.028c-20.608 0-37.324 16.717-37.324 37.325v448c0 20.608 16.716 37.324 37.324 37.324h416.028c20.608 0 37.325-16.716 37.325-37.324v-448z" />
<glyph unicode="&#xe923;" glyph-name="apple" d="M196.52 566.388c38.499 69.848 107.803 113.29 180.984 114.232h1.923c31.767 0 61.61-12.26 88.568-22.664 19.265-8.488 36.576-15.089 49.108-15.089s28.882 6.602 48.147 15.089c28.881 11.317 64.495 25.493 101.074 25.493h14.426c30.803-1.886 108.794-13.203 159.795-90.625l0.96-5.659-2.886-4.716-0.96-0.943c-14.426-9.43-88.57-61.36-87.61-160.474 0.966-122.723 98.189-167.107 109.76-171.818 3.846-1.888 4.806-5.664 3.846-9.434v-0.941c-6.733-19.84-24.077-71.738-59.686-126.496-33.69-50.982-72.192-109.517-135.725-111.405-28.881 0-49.108 8.493-68.342 17.952-19.265 8.486-39.461 17.946-71.228 17.946-33.69 0-54.878-9.427-75.075-18.893-18.303-8.486-37.537-17.005-63.533-17.946h-2.885c-55.84 0-96.262 54.758-136.685 115.174-80.875 120.838-127.068 320.035-53.916 451.244l-0.060-0.029zM680.749 895.853c2.88 0.943 6.726-2.829 6.726-6.602 5.773-48.157-11.539-102.886-45.229-145.384-32.728-40.582-78.95-66.076-123.22-66.076l-8.655 0.943c-3.847 0-5.77 2.829-6.732 5.659-6.732 55.702 19.265 109.517 47.185 142.555 31.766 38.696 84.721 67.019 129.951 68.905h-0.026z" />
<glyph unicode="&#xe924;" glyph-name="arrow-down-thin" d="M633.482 219.443c27.491 0 42.186-32.384 24.086-53.075l-121.485-138.842c-12.749-14.573-35.417-14.573-48.166 0l-121.482 138.842c-18.104 20.691-3.41 53.075 24.083 53.075h53.893v644.557c0 17.673 14.327 32 32 32h71.177c17.673 0 32-14.327 32-32v-644.557h53.893z" />
<glyph unicode="&#xe925;" glyph-name="arrow-left-thin" d="M283.44 326.518c0-27.491-32.38-42.186-53.071-24.086l-138.844 121.485c-14.572 12.749-14.572 35.417 0 48.166l138.844 121.482c20.691 18.104 53.071 3.41 53.071-24.083v-52.358h644.56c17.67 0 32-14.327 32-32.001v-72.711c0-17.673-14.33-32-32-32h-644.56v-53.893z" />
<glyph unicode="&#xe926;" glyph-name="arrow-right-thin" d="M795.578 302.918c-20.659-18.234-53.171-3.558-53.171 23.994v53.499h-646.406c-17.673 0-32 14.327-32 32v72.711c0 17.674 14.327 32.001 32 32.001h646.406v51.964c0 27.556 32.512 42.226 53.171 23.994l137.229-121.087c14.438-12.739 14.438-35.25 0-47.988l-137.229-121.087z" />
<glyph unicode="&#xe927;" glyph-name="arrow-select" d="M483.379 838.756c11.793 23.586 45.45 23.586 57.243 0l140.223-280.445c10.637-21.277-4.832-46.311-28.621-46.311h-280.447c-23.788 0-39.26 25.034-28.622 46.311l140.223 280.445zM540.621 57.242c-11.793-23.584-45.45-23.584-57.243 0l-140.223 280.447c-10.638 21.277 4.834 46.311 28.622 46.311h280.447c23.789 0 39.258-25.034 28.621-46.311l-140.223-280.447z" />
<glyph unicode="&#xe928;" glyph-name="bag" d="M474.008 568.102c-81.404 22.063-244.089 140.584-244.089 238.3 0 80.301 161.021 89.597 282.065 89.597s282.063-9.296 282.063-89.597c0-94.413-157.878-210.889-243.379-238.049-11.304-3.612-26.519-4.367-37.268-4.367-15.154 0-29.907 1.54-39.424 4.116h0.031zM859.686 555.615c63.757-19.964 100.314-64.594 100.314-122.552v-223.994c0-27.046-31.11-57.651-95.142-93.491-2.675-1.478-5.696-2.24-8.749-2.24-3.45 0-6.867 0.954-9.792 2.861-5.453 3.584-7.949 9.798-6.31 15.706 21.773 77.92 21.158 170.573 20.602 252.272l-0.154 33.879c0 43.594-7.142 82.289-21.773 118.296-2.221 5.404-0.774 11.48 3.757 15.596 4.467 4.116 11.149 5.516 17.248 3.64v0.028zM166.132 556.259c6.036 1.848 12.844 0.364 17.309-3.892 4.435-4.228 5.729-10.388 3.388-15.791-15.708-35.391-23.284-74.114-23.284-118.408l-0.154-33.739c-0.554-81.9-1.171-174.547 20.605-252.467 1.633-5.907-0.862-12.128-6.314-15.712-2.926-1.901-6.345-2.854-9.795-2.854-3.049 0-6.067 0.755-8.747 2.272-64.033 35.808-95.141 66.381-95.141 93.459v223.992c0 58.63 37.237 103.485 102.132 123.14zM863.104 600.833c0.154-7.672-6.163-14.223-14.63-15.148-3.853-0.392-7.456-1.148-10.81-2.212-1.818-0.588-3.667-0.868-5.542-0.868-2.746 0-5.485 0.616-7.949 1.82-4.16 2.044-7.149 5.544-8.192 9.688l-27.443 104.913c-1.050 3.948-0.275 8.036 2.125 11.452 5.542 7.896 10.534 15.82 15.002 23.883 3.014 5.348 9.299 8.344 15.859 8.204 6.624-0.364 12.384-4.228 14.598-9.884 21.101-53.226 26.304-101.105 26.982-131.848zM208.945 594.701c-1.14-4.088-4.127-7.532-8.193-9.464-2.464-1.232-5.174-1.82-7.885-1.82-1.817 0-3.665 0.28-5.421 0.812-3.603 1.092-7.392 1.848-11.365 2.184-8.716 0.756-15.369 7.532-15.030 15.428 1.232 28.671 7.392 73.61 30.061 125.184 2.403 5.432 8.070 9.1 14.538 9.436 7.207 0.14 12.566-2.828 15.585-7.98 4.158-7.112 8.686-14.168 13.645-21.112 2.464-3.471 3.203-7.699 2.125-11.676l-28.058-100.993zM827.251 418.139l0.154-33.963c0.832-122.691 1.85-275.37-76.384-346.237-27.782-25.171-63.539-37.939-106.291-37.939h-265.492c-42.75 0-78.509 12.794-106.291 37.939-78.293 70.835-77.215 223.546-76.384 346.237l0.154 33.963c0 88.813 31.631 132.436 59.536 170.822 9.117 12.6 17.741 24.5 24.579 37.183 2.279 4.284 6.745 7.279 11.919 8.148 5.267 0.783 10.564-0.588 14.415-3.836 50.265-42.559 110.756-77.697 155.046-90.297l99.546-0.056c46.292 14.728 108.694 52.106 158.895 95.169 3.885 3.276 9.242 4.76 14.387 3.892 5.171-0.812 9.67-3.836 11.981-8.092 6.31-11.564 13.581-22.679 21.094-34.131 27.718-42.363 59.136-90.353 59.136-178.831v0.028z" />
<glyph unicode="&#xe929;" glyph-name="battery-charge" d="M652 806.4v89.6h-280v-89.6h-81.312c-32.2 0-58.688-26.88-58.688-59.584v-686.784c0-33.152 26.46-60.032 58.688-60.032h442.202c32.653 0 59.11 26.88 59.11 59.584v687.232c0 32.704-26.458 59.584-58.688 59.584h-81.312zM452.612 89.6v246.4h-88.228l176.484 336v-246.4h88.256l-176.512-336z" />
<glyph unicode="&#xe92a;" glyph-name="battery-full" d="M792 584.73v-280.001h-616v280.001h616zM851.29 360.73h52.71v168h-56.147l-0.045 99.471c0 3.712-1.158 6.728-3.475 9.048-2.323 2.32-5.338 3.48-9.050 3.48h-709.204c-3.248 0-6.032-1.16-8.352-3.48s-3.712-5.336-4.176-9.048v-366.896c0-3.712 1.392-6.733 4.176-9.050 2.784-2.323 5.568-3.482 8.352-3.482l712.685-0.019c3.712 0 6.726 1.158 9.043 3.475 2.323 2.323 3.482 5.338 3.482 9.050v99.45zM960 522.572v-149.101c0-13.935-4.877-25.782-14.637-35.54s-27.43-14.638-41.363-14.638v-62.013c0-17.184-6.042-31.814-18.118-43.891s-20.89-18.118-38.074-18.118h-721.772c-16.719 0-31.35 6.042-43.892 18.118s-18.583 26.707-18.118 43.891v373.439c0 17.183 6.039 31.814 18.118 43.893s26.71 18.118 43.892 18.118h715.513c17.184 0 31.814-6.040 43.898-18.118 12.077-12.079 18.118-26.71 18.118-43.893v-62.011c13.933 0 32.038-4.879 41.798-14.638s14.637-21.562 14.637-35.498z" />
<glyph unicode="&#xe92b;" glyph-name="battery" d="M753.907 448.027c0-55.752 10.752-100.413 32.25-133.979 21.504-33.568 44.794-50.355 69.875-50.355h59.13c-17.92-26.163-37.030-44.653-57.338-55.469s-55.552-16.224-105.734-16.224h-447.985c-77.648 0-137.077 26.739-178.288 80.218s-61.816 112.073-61.816 175.782c0 62.572 20.605 120.882 61.816 174.929s100.64 81.071 178.288 81.071h447.985c50.182 0 85.427-5.408 105.734-16.225s39.418-29.306 57.338-55.468h-59.13c-25.082 0-48.371-17.068-69.875-51.205-21.498-34.137-32.25-78.513-32.25-133.129v0.054zM632.066 371.219c5.967 6.82 3.581 14.218-7.16 22.193-81.228 76.231-134.392 122.881-159.492 139.949-9.548 5.684-17.314 9.378-23.3 11.083s-11.366 0.284-16.14-4.262c-4.774-4.547-7.757-7.957-8.95-10.23s-3.58-7.398-7.161-15.373l-19.72-47.795-132.611 56.32c-15.533 6.82-25.686 6.82-30.46 0-4.774-7.956-2.387-15.923 7.16-23.898 81.228-75.094 134.989-121.175 161.282-138.244 20.307-9.093 32.847-12.22 37.621-9.377s10.154 11.66 16.14 26.455l21.51 49.5 130.821-58.026c15.533-6.82 25.686-6.252 30.46 1.705zM909.818 535.065c13.146 0 24.794-7.681 34.938-23.045s15.226-35.558 15.245-60.583c0.019-25.025-5.062-45.504-15.245-61.436s-21.824-23.898-34.938-23.898h-34.042c-13.146 0-24.493 7.965-34.035 23.898-9.549 15.932-14.323 36.41-14.323 61.436s4.774 45.22 14.323 60.583c9.542 15.364 20.89 23.045 34.035 23.045h34.042z" />
<glyph unicode="&#xe92c;" glyph-name="blades" horiz-adv-x="964" d="M481.882 719.137c50.149 0 97.961-15.217 138.162-43.461-15.523 126.115-123.302 224.089-253.548 224.089h-24.706v-225.471c40.6 29.123 89.136 44.843 140.092 44.843zM678.057 618.221c29.124-40.6 44.845-89.134 44.845-140.092 0-50.15-15.215-97.959-43.46-138.16 126.115 15.523 224.087 123.302 224.087 253.547v24.706h-225.473zM481.882 237.092c-50.149 0-97.959 15.221-138.162 43.466 15.521-126.121 123.303-224.093 253.548-224.093h24.703v225.473c-40.597-29.124-89.133-44.845-140.089-44.845zM240.863 478.116c0 50.149 15.217 97.959 43.461 138.162-126.117-15.522-224.089-123.303-224.089-253.548v-24.707h225.471c-29.123 40.601-44.843 89.137-44.843 140.093zM481.883 286.515c105.821 0 191.608 85.786 191.608 191.608s-85.787 191.607-191.608 191.607c-105.822 0-191.607-85.785-191.607-191.607s85.785-191.608 191.607-191.608zM481.883 578.397c26.782 0 51.963-10.429 70.904-29.367 18.939-18.943 29.37-44.125 29.37-70.907s-10.429-51.963-29.367-70.904c-18.943-18.94-44.125-29.371-70.907-29.371s-51.963 10.43-70.904 29.367c-18.94 18.943-29.37 44.125-29.37 70.908s10.429 51.963 29.367 70.904c18.943 18.939 44.125 29.37 70.908 29.37zM445.915 514.071c-9.606-9.606-14.896-22.379-14.896-35.963s5.292-26.359 14.899-35.966c9.606-9.606 22.379-14.896 35.963-14.896s26.36 5.292 35.966 14.899c9.606 9.605 14.896 22.378 14.896 35.963s-5.292 26.36-14.899 35.966c-9.606 9.606-22.379 14.896-35.963 14.896s-26.36-5.292-35.966-14.899z" />
<glyph unicode="&#xe92d;" glyph-name="blender-mill" horiz-adv-x="964" d="M572.223 847.737h-102.754v6.683c0 25.061-19.515 45.109-43.013 45.109h-35.048c-23.896 0-43.013-20.466-43.013-45.109v-6.683h-102.754c-22.303 0-41.818-12.53-52.173-32.161-3.186-6.265 1.194-14.201 7.966-14.201l416.19-2.923c6.77 0 11.156 7.518 8.367 13.783-9.957 21.72-30.667 35.503-53.767 35.503zM697.302 729.534c-20.311 21.719-46.2 36.338-74.481 42.603-5.572 1.253-10.752-2.924-10.752-8.771l-3.186-73.512c0-3.759 1.994-7.518 5.18-9.189 14.336-6.683 27.479-16.707 38.231-29.238 20.709-23.39 31.467-54.716 31.467-86.877v-175.008c0-22.555 16.33-41.353 37.436-42.606 0.795 0 1.59 0 2.391 0 9.957 0 19.914 4.18 27.479 11.28 7.963 7.935 12.746 19.213 12.746 30.491v170.413c0 63.905-23.498 124.468-66.512 170.413zM191.475 649.339l4.381-94.813h137.005c10.753 0 19.117-6.683 19.117-14.619s-8.762-14.619-19.117-14.619h-135.412l2.788-56.804-0.398 8.353h63.325c10.754 0 19.117-6.683 19.117-14.619s-8.762-14.619-19.117-14.619h-62.13l2.39-48.451h129.438c10.753 0 19.117-6.683 19.117-14.619s-8.762-14.619-19.117-14.619h-128.243l2.39-48.448h56.156c10.754 0 19.117-6.686 19.117-14.619 0-7.939-8.762-14.619-19.117-14.619h-54.563l-0.796 12.945 11.151-234.731c0.398-7.939 6.77-14.203 14.338-14.203h351.275c7.567 0 13.939 6.264 14.338 14.203l32.66 691.674c0.398 5.43-3.988 10.024-9.162 10.024h-462.792c-6.372 0-10.753-6.683-8.364-12.948l40.226-109.85z" />
<glyph unicode="&#xe92e;" glyph-name="blender" horiz-adv-x="964" d="M547.584 864.321h-74.73v4.543c0 17.036-14.193 30.665-31.283 30.665h-25.489c-17.379 0-31.283-13.913-31.283-30.665v-4.543h-74.73c-16.22 0-30.413-8.518-37.944-21.863-2.317-4.259 0.869-9.654 5.793-9.654l302.686-1.988c4.924 0 8.111 5.111 6.083 9.37-7.241 14.765-22.303 24.134-39.103 24.134zM430.275 203.601h49.53c-4.634 23.281-25.779 40.882-50.978 40.882-28.676 0-51.848-22.715-51.848-50.821 0-28.112 23.172-50.827 51.848-50.827 25.199 0 46.055 17.607 50.978 40.888h-49.53c-6.372 0-11.586 4.542-11.586 9.939 0 5.391 5.213 9.939 11.586 9.939zM556.853 306.67h-256.052c-5.504 0-10.138-4.259-10.428-9.656l-10.138-201.029c-0.579-10.222 3.476-19.872 11.297-27.54 8.11-7.668 19.407-12.21 31.282-12.21h211.735c11.876 0 23.173 4.542 31.283 12.21 7.82 7.379 11.876 17.318 11.297 27.54l-10.138 201.029c0 5.397-4.634 9.656-10.138 9.656zM502.978 183.724h-2.607c-4.924-34.358-35.048-60.765-71.544-60.765-39.682 0-72.123 31.804-72.123 70.704s32.441 70.698 72.123 70.698c36.206 0 66.62-26.407 71.544-60.759h2.607c6.372 0 11.586-4.548 11.586-9.939 0-5.397-5.214-9.939-11.586-9.939zM674.455 780.276c-14.776 14.765-33.605 24.702-54.17 28.962-4.054 0.852-7.819-1.988-7.819-5.963l-2.319-49.972c0-2.556 1.452-5.111 3.765-6.247 10.433-4.543 19.986-11.357 27.811-19.876 15.059-15.9 22.883-37.195 22.883-59.059v-118.97c0-15.333 11.872-28.11 27.226-28.962 0.578 0 1.157 0 1.735 0 7.24 0 14.487 2.839 19.986 7.666 5.795 5.395 9.27 13.061 9.27 20.728v115.847c0 43.442-17.089 84.613-48.369 115.846zM270.677 729.451l3.186-64.454h99.64c7.821 0 13.904-4.543 13.904-9.938s-6.372-9.938-13.904-9.938h-98.482l2.028-38.615-0.29 5.678h46.055c7.82 0 13.903-4.543 13.903-9.938s-6.372-9.938-13.903-9.938h-45.186l1.738-32.937h94.137c7.821 0 13.904-4.543 13.904-9.938s-6.372-9.938-13.904-9.938h-93.268l1.738-32.937h40.841c7.82 0 13.903-4.543 13.903-9.938s-6.372-9.938-13.903-9.938h-39.682l-0.579 8.802 8.11-159.572c0.29-5.397 4.924-9.656 10.427-9.656h255.473c5.504 0 10.138 4.259 10.428 9.656l23.751 470.2c0.289 3.691-2.897 6.814-6.662 6.814h-336.576c-4.635 0-7.82-4.543-6.083-8.802l29.254-74.676z" />
<glyph unicode="&#xe92f;" glyph-name="bluetooth" horiz-adv-x="964" d="M249.273 232.671l184.837 147.029v-281.456c0-21.004 16.803-42.008 42.008-42.008 8.402 0 16.804 4.198 25.205 8.403l252.052 189.036c16.8 12.601 21.004 42.008 8.403 58.814-4.204 4.198-4.204 4.198-8.403 8.397l-197.441 159.634 197.441 155.431c16.8 12.602 21.004 42.008 8.403 58.811-4.204 4.201-4.204 4.201-8.403 8.402l-252.052 189.038c-21.004 12.603-46.21 8.402-63.013-8.402-4.201-8.402-8.402-16.803-8.402-25.205v-281.456l-180.636 147.030-54.611-63.013 222.644-180.636-222.644-176.434 50.41-67.217 4.201-4.198zM518.127 770.377l142.829-105.021-142.829-109.222v214.242zM518.127 400.704l142.829-113.424-142.829-105.020v218.444z" />
<glyph unicode="&#xe930;" glyph-name="boiler-material" horiz-adv-x="964" d="M786.848 866.761h-32.834c-26.865 28.913-111.441 32.768-211.934 32.768-118.404 0-223.873-16.384-259.692-47.224-10.945-8.674-19.9-19.275-27.86-31.804-59.7-21.203-164.174-62.645-164.174-212.028 0-215.883 151.239-356.592 151.239-388.397v-77.101c0-45.297 38.805-86.739 86.564-86.739h307.453c44.773 0 82.583 34.696 90.546 76.137l42.785 513.686c9.945 92.521 104.472 220.702 104.472 220.702h-86.564zM241.592 370.422c-49.75 0-133.329 341.173 0 360.448v-360.448zM639.59 255.735c0-8.674-5.969-15.42-14.926-15.42s-14.926 6.746-14.926 15.42v440.44c0 8.674 5.969 15.42 14.926 15.42s14.926-6.746 14.926-15.42v-440.44z" />
<glyph unicode="&#xe931;" glyph-name="boiler-size" horiz-adv-x="964" d="M149.902 899.529c-32.752 0-59.548-29.958-59.548-66.572 0-36.837 26.796-66.573 59.548-66.573v-599.195c0-61.247 44.661-110.953 99.247-110.953h254.496c54.785 0 99.25 49.706 99.25 110.953v599.195c32.949 0 59.543 29.735 59.543 66.573 0 36.614-26.594 66.572-59.543 66.572h-452.994zM452.563 281.245h-109.054v-67.421h-36.508v528.103h36.508v-67.418h109.054v-30.743h-109.054v-53.079h109.054v-30.784h-109.054v-60.352h109.054v-30.784h-109.054v-66.771h109.054v-30.74h-109.054v-59.222h109.054v-30.786zM778.132 208.402v538.962h-47.634l71.457 152.165 71.457-152.165h-47.64v-538.962h47.64l-71.457-152.166-71.457 152.166h47.634z" />
<glyph unicode="&#xe932;" glyph-name="boiler" horiz-adv-x="964" d="M556.926 833.093c0.475 2.689 0.896 5.354 0.896 8.171 0 32.171-28.397 58.266-63.403 58.266-35.022 0-63.448-26.095-63.448-58.266 0-3.898 0.489-7.695 1.272-11.389-107.46-24.974-150.476-101.742-150.476-101.742h440.23c0 0-46.688 84.037-165.072 104.96zM480.737 292.406h74.37v20.691h-74.37v39.81h74.37v20.666h-74.37v44.884h74.37v20.694h-74.37v40.569h74.37v20.693h-74.37v35.681h74.37v20.666h-74.37v45.319h-24.897v-354.993h24.897v45.321zM570.285 168.207h248.722c19.854 235.401-27.365 388.528-27.365 388.528s96.985 57.132 111.887 143.964h-636.649c0 0-10.208-17.024-23.456-53.104-74.886-21.4-179.784-79.664-183.088-192.257-3.389-116.22 79.44-196.459 121.714-229.793-0.113-18.601-0.169-37.49 0.224-57.362h236.258v-25.142h-262.343v-86.805h691.387v86.823h-277.321v25.148h0.029zM139.946 453.328c1.555 52.963 39.755 85.429 77.155 104.641-13.457-57.030-25.794-132.616-31.577-228.994-24.898 31.243-47.064 73.554-45.579 124.353zM498.199 663.354c70.46 0 127.651-103.354 127.651-230.822 0-127.441-57.191-230.793-127.651-230.793-70.521 0-127.682 103.352-127.682 230.793 0 127.469 57.161 230.822 127.682 230.822z" />
<glyph unicode="&#xe933;" glyph-name="book" d="M815.533 672.599c10.976-4.936 16.467-13.585 16.467-25.945v-520.689c0-8.64-3.654-16.365-10.963-23.168-7.302-6.81-15.84-10.202-25.6-10.182-28.032 0-42.048 11.117-42.048 33.35v483.609c0 7.405-3.654 12.968-10.963 16.689l-369.395 200.125c-19.506 6.17-40.229 3.085-62.17-9.256-26.813-12.36-43.883-25.945-51.21-40.754l373.050-211.233c10.979-4.936 16.47-13.585 16.47-25.945v-509.556c0-13.594-5.491-22.24-16.47-25.946-3.653-2.464-8.525-3.699-14.614-3.699-8.525 0-14.625 1.235-18.298 3.699-4.871 3.706-66.433 42.925-184.684 117.664s-182.867 115.194-193.847 121.37c-15.852 11.123-23.778 21.626-23.778 31.494l-5.48 485.462c0 17.297 4.262 33.359 12.788 48.188 17.070 28.403 48.155 52.179 93.256 71.326s80.458 21.925 106.072 8.33l411.418-214.934z" />
<glyph unicode="&#xe934;" glyph-name="box" horiz-adv-x="964" d="M890.151 576.044l-70.373 43.618 70.373 44.199c4.126 2.45 7.535 5.944 9.885 10.13s3.554 8.916 3.494 13.715c0 4.856-1.295 9.625-3.747 13.816s-5.981 7.653-10.216 10.029l-271.011 162.259c-4.247 2.45-9.059 3.74-13.957 3.74-4.903 0-9.717-1.29-13.961-3.74l-108.755-58.157-108.755 58.739c-4.244 2.45-9.058 3.74-13.958 3.74s-9.714-1.29-13.958-3.74l-271.596-162.841c-4.050-2.535-7.397-6.047-9.735-10.213s-3.589-8.854-3.642-13.631c0.104-4.766 1.379-9.434 3.711-13.593s5.652-7.679 9.665-10.252l70.371-44.199-70.371-43.618c-4.172-2.544-7.604-6.14-9.951-10.426s-3.528-9.114-3.425-14c0.352-4.619 1.802-9.087 4.23-13.033s5.763-7.254 9.729-9.649l94.796-53.505v-206.462c0.014-4.927 1.308-9.77 3.755-14.053s5.962-7.855 10.203-10.373l284.391-163.418c4.268-2.367 9.080-3.566 13.958-3.494 4.871-0.024 9.671 1.175 13.958 3.494l284.973 162.256c4.241 2.518 7.758 6.090 10.204 10.373s3.741 9.126 3.753 14.053v206.462l95.377 54.668c4.126 2.505 7.56 5.996 9.993 10.159 2.44 4.163 3.801 8.866 3.97 13.686-0.096 4.689-1.373 9.279-3.71 13.345s-5.662 7.477-9.668 9.919zM509.8 406.805l65.718-40.711c4.421-2.552 9.435-3.895 14.54-3.895s10.119 1.343 14.542 3.895l134.343 76.768v-158.191l-229.142-130.855v252.988zM539.461 781.922l63.97 37.802 218.094-130.273-55.248-34.313-226.817 126.783zM766.277 587.094l54.085-33.731-229.142-130.855-54.668 33.731 229.725 130.855zM708.12 619.662l-226.236-129.692-227.978 129.692 227.978 130.273 226.236-130.273zM142.244 687.125l218.091 132.599 63.973-35.476-226.815-131.436-55.25 34.313zM427.216 454.494l-54.668-33.731-229.141 132.6 54.086 33.731 229.723-132.6zM224.828 440.536l133.181-74.442c4.356-2.736 9.396-4.188 14.54-4.188s10.183 1.452 14.54 4.188l65.718 40.711v-252.988l-227.978 130.277v156.443z" />
<glyph unicode="&#xe935;" glyph-name="cable" horiz-adv-x="964" d="M776.451 543.289h-40.219v199.923c-3.192 44.181-23.6 85.325-56.808 114.525-33.214 29.201-76.553 44.109-120.645 41.499-20.75 1.005-41.48-2.333-60.873-9.802s-37.022-18.906-51.767-33.582c-14.744-14.677-26.281-32.271-33.875-51.664s-11.080-40.158-10.235-60.976v-530.359c2.029-26.142-6.055-52.067-22.576-72.391-16.52-20.329-40.209-33.491-66.15-36.768-78.671 0-90.501 68.222-90.501 109.158v415.27h15.971c5.41-0.079 10.78 0.922 15.801 2.944s9.589 5.025 13.442 8.834c3.853 3.809 6.913 8.348 9 13.354s3.163 10.377 3.162 15.803v163.142h-26.026v56.359h-109.429v-59.325h-24.252v-160.769c-0.001-5.426 1.075-10.798 3.162-15.803s5.147-9.544 9-13.354c3.853-3.809 8.422-6.811 13.442-8.834s10.391-3.023 15.801-2.944h14.196v-415.273c0-96.105 52.052-156.021 137.23-156.021 38.443 3.186 74.14 21.251 99.533 50.375s38.489 67.012 36.513 105.647v530.955c-0.967 14.637 1.205 29.312 6.37 43.035s13.204 26.177 23.574 36.522c10.37 10.344 22.831 18.339 36.542 23.445s28.354 7.205 42.943 6.155c15.732 1.631 31.631 0.081 46.755-4.558s29.172-12.272 41.303-22.45 22.106-22.69 29.335-36.8c7.228-14.11 11.559-29.53 12.74-45.349v-199.923h-39.635c-8.62 0.078-17.173-1.547-25.166-4.784-7.999-3.238-15.282-8.023-21.432-14.082-6.152-6.060-11.053-13.275-14.425-21.235s-5.146-16.507-5.224-25.155v-271.112h41.405v-131.108h177.453v131.698h41.406v271.115c-0.157 8.648-2.006 17.181-5.445 25.111-3.445 7.93-8.409 15.103-14.619 21.108-6.204 6.005-13.535 10.724-21.558 13.889s-16.595 4.713-25.221 4.556zM671.756 128.018v34.406h13.607v-34.406h-13.607zM739.78 128.018v34.406h14.197v-34.406h-14.197zM630.35 478.625c0 2.466 0.494 4.907 1.452 7.178s2.361 4.325 4.126 6.041c1.765 1.716 3.861 3.058 6.15 3.946 2.295 0.889 4.747 1.306 7.198 1.226h127.175c2.409 0 4.795-0.476 7.017-1.4 2.229-0.924 4.247-2.279 5.951-3.986s3.054-3.735 3.976-5.966c0.922-2.231 1.397-4.622 1.397-7.038v-224.842h-164.442v224.842z" />
<glyph unicode="&#xe936;" glyph-name="calendar" d="M860.448 796.448c27.872 0 51.43-9.625 70.675-28.874 19.251-19.249 28.877-42.809 28.877-70.678v-597.344c0-26.541-9.626-49.773-28.877-69.683-19.245-19.91-42.803-29.869-70.675-29.869h-696.896c-26.543 0-49.771 9.958-69.683 29.869s-29.869 43.142-29.869 69.683v597.344c0 27.869 9.956 51.428 29.869 70.678s43.14 28.874 69.683 28.874h45.782v-99.552h159.29v99.552h288.707v-99.552h159.29v99.552h43.827zM860.448 99.552v398.239h-696.896v-398.239h696.896zM322.842 896v-169.235h-69.683v169.235h69.683zM770.842 896v-169.235h-69.683v169.235h69.683z" />
<glyph unicode="&#xe937;" glyph-name="call" d="M960 188.096c0-11.386-2.278-26.208-6.829-44.454-4.557-18.24-9.114-32.678-13.664-43.309-8.352-21.286-34.182-44.090-77.491-68.41-39.52-21.28-78.643-31.923-117.376-31.923-11.386 0-22.784 0.762-34.195 2.278s-23.565 4.173-36.467 7.974c-12.902 3.795-22.784 6.829-29.638 9.107-6.856 2.278-18.633 6.458-35.332 12.531s-27.337 9.869-31.915 11.386c-41.035 15.213-77.884 33.069-110.545 53.568-53.939 33.427-110.166 79.034-168.683 136.806-58.516 57.779-104.106 114.024-136.768 168.739-20.517 32.672-37.987 69.533-52.408 110.58-1.518 3.796-5.313 14.438-11.386 31.925s-10.627 29.268-13.663 35.342c-3.036 6.074-6.072 15.956-9.108 29.647s-5.693 25.851-7.97 36.481c-2.277 10.63-3.036 21.651-2.277 33.064 0 39.53 11.018 79.047 33.053 118.553 23.553 43.326 45.969 69.165 67.245 77.517 10.626 4.556 25.060 9.112 43.3 13.667s33.053 6.833 44.439 6.833c6.072 0 10.627-0.759 13.663-2.278 7.59-2.278 18.988-18.234 34.192-47.87 4.554-8.351 10.638-20.132 18.252-35.341s15.216-28.508 22.806-39.898c7.59-11.389 14.054-22.79 19.391-34.202 1.518-1.519 5.313-6.834 11.386-15.945s10.627-16.716 13.663-22.814c3.036-6.098 4.554-12.172 4.554-18.222 0-8.352-6.072-18.614-18.217-30.787s-25.439-23.953-39.885-35.341c-14.445-11.389-27.361-22.79-38.746-34.203s-17.469-20.915-18.252-28.508c0-3.796 1.139-8.732 3.416-14.806s3.795-10.25 4.554-12.528c0.759-2.278 3.795-7.593 9.108-15.945s7.97-12.148 7.97-11.389c31.903-58.511 68.751-108.671 110.545-150.478 41.795-41.81 91.558-78.668 149.292-110.578 0.759 0 4.554-2.278 11.386-6.835s12.144-7.597 15.939-9.114c3.795-1.517 7.97-3.418 12.524-5.696s9.488-3.034 14.801-2.278c7.59 0 17.090 6.080 28.497 18.227 11.411 12.147 22.81 25.069 34.195 38.758s23.162 26.989 35.328 39.898c12.173 12.906 22.81 18.98 31.917 18.221 5.312 0 11.008-1.519 17.075-4.556 6.074-3.035 13.677-7.592 22.81-13.665s14.445-9.875 15.942-11.392c10.624-6.074 22.022-12.538 34.189-19.398 12.166-6.854 25.843-14.458 41.024-22.81s26.579-14.822 34.189-19.398c29.626-14.451 45.581-25.472 47.859-33.062 1.517-3.040 2.272-7.597 2.272-13.67h0.038z" />
<glyph unicode="&#xe938;" glyph-name="cam" horiz-adv-x="964" d="M471.195 899.647l-222.116-384.958-115.66 200.487c74.082 108.654 197.533 180.931 337.777 184.472zM841.415 698.131h-444.217l115.697 200.523c138.942-10.163 259.406-87.907 328.52-200.523zM903.523 477.999c0 65.71-15.107 127.952-41.996 183.445h-231.466l222.13-385.012c32.726 59.928 51.333 128.611 51.333 201.567zM111.555 679.566l222.154-385.016h-231.467c-26.893 55.495-42 117.737-42 183.447 0 72.956 18.608 141.637 51.313 201.568zM714.74 441.311l-222.116-384.961c140.244 3.542 263.696 75.818 337.78 184.495l-115.664 200.467zM122.396 257.867h444.215l-115.696-200.523c-138.942 10.162-259.405 87.907-328.518 200.523z" />
<glyph unicode="&#xe939;" glyph-name="camera-security-2" horiz-adv-x="964" d="M843.294 576.706c-13.336 179.447-169.833 322.823-361.412 322.823-191.575 0-348.077-143.376-361.412-322.823h182.67c12.708 83.588 87.621 148.235 178.742 148.235s166.033-64.648 178.742-148.235h182.67zM352.339 749.647c0-13.644-11.061-24.706-24.706-24.706h-2.405c-13.644 0-24.706 11.061-24.706 24.706s11.062 24.706 24.706 24.706h2.405c13.645 0 24.706-11.061 24.706-24.706zM481.883 501.76c29.098 0 52.686 22.493 52.686 50.24s-23.588 50.24-52.686 50.24c-29.098 0-52.686-22.494-52.686-50.24s23.588-50.24 52.686-50.24zM843.294 527.294c-13.336-179.442-169.833-321.175-361.412-321.175-191.575 0-348.077 141.734-361.412 321.175h182.67c12.708-83.589 87.621-148.235 178.742-148.235s166.033 64.647 178.742 148.235h182.67zM481.883 690.154c-79.883 0-144.88-61.98-144.88-138.154s64.997-138.154 144.88-138.154c79.883 0 144.877 61.98 144.877 138.154s-64.994 138.154-144.877 138.154zM481.883 469.108c-47.934 0-86.928 37.184-86.928 82.892s38.994 82.893 86.928 82.893c47.934 0 86.928-37.184 86.928-82.893s-38.994-82.892-86.928-82.892zM653.354 105.647h61.705v-49.411h-466.355v49.411h61.707l37.266 72.734c42.158-13.812 87.191-21.673 134.205-21.673s92.047 7.861 134.204 21.673l37.268-72.734z" />
<glyph unicode="&#xe93a;" glyph-name="camera-security" horiz-adv-x="964" d="M830.554 461.722v-105.045h-697.34v105.045c0 92.808 36.268 180.063 102.123 245.687s153.413 101.767 246.546 101.767c93.133 0 180.693-36.142 246.548-101.767 65.849-65.625 102.123-152.879 102.123-245.687zM635.946 558.686c0 84.655-69.113 153.526-154.063 153.526s-154.063-68.871-154.063-153.526c0-84.654 69.112-153.526 154.063-153.526s154.063 68.872 154.063 153.526zM481.884 453.641c58.125 0 105.412 47.122 105.412 105.044s-47.287 105.044-105.412 105.044c-58.124 0-105.411-47.122-105.411-105.044s47.287-105.044 105.411-105.044zM481.884 608.784c27.721 0 50.273-22.475 50.273-50.098s-22.551-50.098-50.273-50.098c-27.721 0-50.273 22.475-50.273 50.098s22.551 50.098 50.273 50.098zM84.561 146.589h794.646c13.432 0 24.323 10.854 24.323 24.239v137.367h-843.294v-137.367c0-13.384 10.892-24.239 24.325-24.239zM287.276 275.872h32.434c13.435 0 24.325-10.854 24.325-24.239s-10.892-24.239-24.325-24.239h-32.434c-13.435 0-24.325 10.854-24.325 24.239s10.892 24.239 24.325 24.239zM189.972 275.872h32.434c13.435 0 24.325-10.854 24.325-24.239s-10.892-24.239-24.325-24.239h-32.434c-13.435 0-24.325 10.854-24.325 24.239s10.892 24.239 24.325 24.239z" />
<glyph unicode="&#xe93b;" glyph-name="camera" d="M512.014 535.983c38.23 0 70.184-12.903 95.863-38.71s38.516-56.897 38.516-93.271c0-36.374-13.136-67.465-39.412-93.269-26.276-25.811-57.932-38.714-94.968-38.714s-68.692 12.902-94.968 38.714c-26.276 25.804-39.414 56.895-39.414 93.269s13.138 67.465 39.414 93.271c26.276 25.807 57.932 38.71 94.968 38.71zM870.4 667.992c25.088 0 46.291-8.508 63.616-25.523s25.984-37.84 25.984-62.474v-396.001c0-23.456-8.659-43.994-25.984-61.594s-38.528-26.4-63.616-26.4h-716.803c-23.889 0-44.794 8.8-62.716 26.4s-26.882 38.138-26.882 61.594v396.001c0 24.634 8.961 45.459 26.882 62.474s38.826 25.523 62.716 25.523h107.528c16.728 0 28.672 8.8 35.833 26.401l26.882 80.964c5.968 16.429 17.912 24.643 35.834 24.643h304.653c17.92 0 29.869-8.214 35.834-24.643l26.88-80.964c7.162-17.601 19.104-26.401 35.834-26.401h107.526zM512.014 183.968c62.118 0 114.988 21.414 158.604 64.23 43.622 42.822 65.421 94.749 65.402 155.776s-21.818 112.951-65.402 155.773c-43.579 42.821-96.448 64.232-158.604 64.232s-115.025-21.411-158.607-64.232c-43.581-42.822-65.382-94.746-65.4-155.773s21.782-112.954 65.4-155.776c43.619-42.816 96.488-64.23 158.607-64.23zM839.942 518.372c8.352 0 15.52 3.224 21.51 9.67 5.984 6.447 8.966 13.782 8.947 22.006-0.013 8.223-3.002 15.266-8.947 21.126-5.952 5.861-13.12 8.792-21.51 8.792-21.504 0-32.256-9.972-32.256-29.918 0-9.378 3.283-17.006 9.85-22.885 6.56-5.88 14.029-8.81 22.406-8.792z" />
<glyph unicode="&#xe93c;" glyph-name="card-1" horiz-adv-x="1042" d="M910.607 768c32.261 0 58.536-27.919 58.536-62.058l-0.596-515.884c0-34.139-26.277-62.058-58.538-62.058h-778.022c-32.859 0-58.844 27.299-58.844 62.058v515.884c0 34.139 26.276 62.058 59.134 62.058h778.33zM905.143 192c0 0 0.596 1.24 0.596 3.099l-0.596 316.901h-768v-316.25c0-1.86-0.597-3.75 0-3.75h768zM425.143 378.959c16.132 0 28.681-13.040 28.681-29.16 0-16.759-12.549-29.798-28.681-29.798h-166.042c-16.13 0-29.277 13.040-29.277 29.798 0 16.139 13.147 29.16 29.277 29.16h166.042z" />
<glyph unicode="&#xe93d;" glyph-name="card" d="M686.982 895.972h-558.982v-237.427h40.82v-210.545h-40.82v-448h768v703.357l-209.018 192.615zM220.355 740.084h-51.534v117.371h51.534v-117.371zM290.371 740.084h-51.534v117.371h51.534v-117.371zM360.358 740.084h-50.563v117.371h50.563v-117.371zM431.315 740.084h-51.534v117.371h51.534v-117.371zM501.302 740.084h-51.534v117.371h51.534v-117.371zM571.318 740.084h-50.563v117.371h50.563v-117.371zM642.278 740.084h-51.536v117.371h51.536v-117.371z" />
<glyph unicode="&#xe93e;" glyph-name="cart-refresh" horiz-adv-x="964" d="M369.988 387.53h429.178c16.408 0 30.63 10.947 34.268 26.373l69.21 293.647c4.994 21.202-11.716 41.391-34.268 41.391h-575.052l-13.419 63.262c-3.345 15.768-17.733 27.091-34.424 27.091h-150.108c-19.406 0-35.137-15.169-35.137-33.882v-22.588c0-18.713 15.731-33.882 35.137-33.882h102.313l102.845-484.851c-25.789-14.3-42.763-41.719-41.068-72.824 2.196-40.279 36.178-72.837 77.962-74.71 47.058-2.102 85.896 34.063 85.896 78.974 0 22.13-9.439 42.123-24.631 56.471h306.937c-15.691-14.824-25.245-35.659-24.6-58.657 1.175-42.092 37.087-76.258 80.745-76.866 45.833-0.632 83.197 35.003 83.197 79.053 0 31.304-18.872 58.35-46.237 71.162l8.078 34.268c5 21.203-11.716 41.394-34.262 41.394h-392.977l-9.582 45.176zM441.96 574.244c2.658 60.948 55.004 109.786 119.157 109.786h1.629c31.717-0.414 60.503-12.89 81.483-32.699l13.746 12.234c2.584 1.729 5.343 1.252 7.276 0.125 1.759-1.029 3.211-2.799 3.638-4.592l13.667-51.561c1.259-4.48 0.205-8.286-2.421-10.738-2.512-2.347-6.144-3.152-9.415-2.418l-58.338 11.391c-2.747 0.661-4.668 2.476-4.957 5.037-0.259 2.282 0.867 4.512 2.476 6.199l0.090 0.098 11.83 11.204c-15.462 15.050-37.122 24.25-60.697 24.25-46.224 0-84.214-35.076-86.531-78.958l-32.633 0.643zM683.086 561.282c-2.656-60.948-55.007-109.786-119.157-109.786h-1.629c-31.717 0.414-60.505 12.89-81.484 32.699l-13.743-12.234c-2.587-1.729-5.343-1.252-7.275-0.125-1.764 1.029-3.214 2.8-3.644 4.592l-13.663 51.561c-1.26 4.48-0.208 8.286 2.42 10.738 2.514 2.347 6.146 3.152 9.413 2.418l58.342-11.391c2.744-0.661 4.667-2.476 4.956-5.037 0.257-2.282-0.87-4.511-2.474-6.199l-0.093-0.098-11.827-11.204c15.464-15.050 37.121-24.25 60.695-24.25 46.226 0 84.216 35.076 86.529 78.958l32.635-0.643z" />
<glyph unicode="&#xe93f;" glyph-name="cart" d="M213.328 99.552c0 26.541 9.956 49.773 29.869 69.683s43.14 29.869 69.683 29.869c27.869 0 51.428-9.958 70.678-29.869s28.874-43.142 28.874-69.683c0-27.872-9.624-51.43-28.874-70.675-19.25-19.251-42.809-28.877-70.678-28.877-26.543 0-49.771 9.626-69.683 28.877-19.912 19.245-29.869 42.803-29.869 70.675zM711.091 99.552c0 26.541 9.952 49.773 29.869 69.683 19.91 19.91 43.136 29.869 69.683 29.869 27.866 0 51.424-9.958 70.675-29.869s28.877-43.142 28.877-69.683c0-27.872-9.626-51.43-28.877-70.675-19.251-19.251-42.81-28.877-70.675-28.877-26.547 0-49.773 9.626-69.683 28.877-19.917 19.245-29.869 42.803-29.869 70.675zM390.52 334.493c-23.891-6.631-35.173-14.266-33.847-22.909 1.326-8.64 15.924-12.947 43.793-12.928h559.521v-75.648c0-13.286-6.643-19.923-19.923-19.923h-651.085c-13.282 0-19.923 6.637-19.923 19.923v75.648l-9.946 45.782-97.563 451.978h-97.563v79.661c0 13.282 6.641 19.923 19.923 19.923h155.311c13.282 0 19.923-6.641 19.923-19.923v-85.628h700.872v-272.797c0-14.608-5.978-23.238-17.933-25.891l-551.56-157.269z" />
<glyph unicode="&#xe940;" glyph-name="chat" d="M323.86 349.428h313.594c1.194 0 2.98 0.596 5.368 1.79h3.584v-82.431c0-23.891-8.663-44.794-25.987-62.714s-38.527-26.88-63.608-26.88h-224l-134.406-134.406v134.406h-44.812c-23.888 0-44.792 8.96-62.713 26.88s-26.881 38.822-26.881 62.714v268.781c0 25.082 8.961 46.284 26.881 63.608s38.825 25.986 62.713 25.986h170.238v-277.763l0.028 0.028zM870.406 851.191c25.082 0 46.285-8.662 63.61-25.987s25.984-38.527 25.984-63.608v-268.783c0-23.889-8.659-44.793-25.984-62.714s-38.528-26.881-63.61-26.881h-44.813v-134.406l-134.406 134.406h-313.593v358.406c0 25.082 8.961 46.284 26.881 63.608s38.825 25.986 62.714 25.986l403.217-0.028z" />
<glyph unicode="&#xe941;" glyph-name="check" d="M395.743 313.434l-203.448 235.494c-16.052 18.58-42.077 18.58-58.129 0l-58.128-67.284c-16.052-18.58-16.052-48.705 0-67.284l232.226-268.803c0.094-0.115 0.189-0.224 0.285-0.333l58.128-67.29c7.216-8.352 16.447-12.947 25.881-13.792 6.307-0.563 12.703 0.55 18.65 3.341 4.949 2.323 9.586 5.811 13.6 10.451l58.128 67.29c0.081 0.090 0.162 0.186 0.243 0.282l464.782 537.992c16.051 18.58 16.051 48.705 0 67.284l-58.131 67.284c-16.051 18.58-42.074 18.58-58.125 0l-435.962-504.631z" />
<glyph unicode="&#xe942;" glyph-name="cheque" d="M881.139 579.668h-52.384l-157.67-157.818c-2.003-2.002-4.307-3.67-6.816-4.927l-156.097-78.113c-11.226-5.592-23.274-8.337-35.217-8.337-20.428 0-40.549 7.951-55.671 23.112-23.99 24.012-29.937 60.567-14.765 90.941l67.503 135.142h-327.283c-43.419 0-78.739-35.35-78.739-78.807v-422.051c0-43.456 35.32-78.81 78.739-78.81h738.4c43.418 0 78.739 35.354 78.739 78.81v422.051c0 43.459-35.322 78.807-78.739 78.807zM195.232 369.517h159.229c14.508 0 26.246-11.749 26.246-26.269s-11.739-26.268-26.246-26.268h-159.229c-14.508 0-26.246 11.748-26.246 26.268s11.739 26.269 26.246 26.269zM828.646 105.075h-633.414c-14.508 0-26.246 11.75-26.246 26.272s11.739 26.266 26.246 26.266h633.414c14.509 0 26.246-11.744 26.246-26.266s-11.738-26.272-26.246-26.272zM828.646 210.15h-633.414c-14.508 0-26.246 11.75-26.246 26.272s11.739 26.266 26.246 26.266h633.414c14.509 0 26.246-11.744 26.246-26.266s-11.738-26.272-26.246-26.272zM936.934 873.681c-29.76 29.784-81.69 29.734-111.347 0l-18.566-18.58 111.36-111.446 18.554 18.564c14.861 14.879 23.066 34.683 23.066 55.745 0 21.034-8.205 40.838-23.066 55.716zM515.245 552.733l-65.77-131.677c-5.050-10.108-3.076-22.319 4.921-30.324 5.051-5.055 11.765-7.696 18.557-7.696 3.999 0 7.996 0.899 11.74 2.771l131.564 65.827-101.011 101.1zM769.907 817.955l-222.724-222.895 111.364-111.462 222.72 222.909-111.36 111.448z" />
<glyph unicode="&#xe943;" glyph-name="circle-lg" d="M896 448c0-212.077-171.923-384-384-384s-384 171.923-384 384c0 212.077 171.923 384 384 384s384-171.923 384-384z" />
<glyph unicode="&#xe944;" glyph-name="circle-md" d="M768 448c0-141.385-114.615-256-256-256s-256 114.615-256 256c0 141.385 114.615 256 256 256s256-114.615 256-256z" />
<glyph unicode="&#xe945;" glyph-name="circle-sm" d="M640 448c0-70.692-57.308-128-128-128s-128 57.308-128 128c0 70.692 57.308 128 128 128s128-57.308 128-128z" />
<glyph unicode="&#xe946;" glyph-name="clock" d="M192 448.028c0 72.28 26.67 135.897 80.011 190.853l39.991 211.441c2.478 13.147 8.993 23.897 19.545 32.252s23.263 12.83 38.132 13.427h232.569c13.649 0 25.741-4.476 36.273-13.427 10.534-8.951 17.357-19.702 20.474-32.252l41.85-218.63c35.354-38.228 57.677-81.24 66.97-129.035l1.862 0.895c1.235 0.596 2.477 0.895 3.718 0.895 15.507 0 29.146-5.678 40.915-17.035 11.776-11.357 17.67-24.494 17.69-39.412s-5.875-28.056-17.69-39.412c-11.808-11.357-25.446-16.737-40.915-16.14-1.242 0-2.483 0-3.718 0l-1.862 0.895c-10.547-50.182-34.112-94.386-70.688-132.613l-41.85-215.053c-2.477-13.146-8.678-23.898-18.614-32.25-9.932-8.352-22.333-12.832-37.203-13.427h-232.568c-14.889 0-27.29 4.474-37.203 13.427s-16.428 19.699-19.545 32.25l-41.85 215.053c-50.863 53.76-76.294 116.212-76.294 187.299zM250.607 448.028c0-61.52 22.634-114.387 67.901-158.601 45.267-44.218 100.156-66.016 164.668-65.402 64.512 0.621 119.082 22.419 163.711 65.402 44.627 42.983 67.571 95.85 68.832 158.601 1.254 62.751-21.69 115.617-68.832 158.601-47.146 42.984-101.716 64.783-163.711 65.399s-116.884-21.185-164.668-65.399c-47.784-44.214-70.418-97.082-67.901-158.601zM279.446 448.028c0 8.354 2.788 14.927 8.364 19.72s12.401 7.478 20.474 8.056c8.074 0.578 15.208-2.107 21.404-8.056s8.674-12.522 7.435-19.72c-1.239-7.198-3.717-13.772-7.435-19.72s-10.852-8.634-21.404-8.056c-10.552 0.579-17.377 3.263-20.474 8.056s-5.886 11.366-8.364 19.72zM329.688 329.763c0 7.757 2.788 14.331 8.364 19.72s12.711 7.777 21.404 7.161c8.693-0.615 15.518-3.002 20.474-7.161s7.745-10.732 8.364-19.72c0.62-8.989-2.168-15.561-8.364-19.721s-13.020-7.142-20.474-8.954c-7.454-1.805-14.589 1.178-21.404 8.954s-9.603 14.35-8.364 19.721zM329.688 567.189c0 7.757 2.788 14.331 8.364 19.72s12.711 8.075 21.404 8.056c8.693-0.019 15.518-2.704 20.474-8.056s7.745-11.925 8.364-19.72c0.62-7.795-2.168-14.667-8.364-20.616s-13.020-8.335-20.474-7.161c-7.454 1.175-14.589 3.562-21.404 7.161s-9.603 10.471-8.364 20.616zM337.123 206.995l29.768-151.418h232.568l28.839 151.418c-45.887-25.683-94.261-38.522-145.123-38.522s-99.546 12.838-146.052 38.522zM340.84 689.93c45.887 25.082 94.261 37.622 145.123 37.622s99.547-12.541 146.052-37.622l-29.768 149.622h-232.569l-28.839-149.622zM453.407 280.474c0 7.757 2.788 14.336 8.364 19.725s12.711 8.070 21.404 8.051c8.693-0.019 15.518-2.701 20.475-8.051 4.956-5.357 7.745-11.93 8.364-19.725s-2.169-14.662-8.364-20.614c-6.196-5.946-13.021-8.634-20.475-8.058-7.454 0.582-14.589 3.264-21.404 8.058s-9.603 11.667-8.364 20.614zM453.407 448.028c0 8.354 3.098 14.927 9.293 19.72l150.7 120.056c4.957 3.58 9.293 3.282 13.011-0.895s4.337-8.354 1.859-12.531l-70.689-84.224-54.89-62.713c-4.956-4.774-11.471-7.161-19.545-7.161s-15.208 2.685-21.404 8.056c-6.196 5.37-8.955 11.916-8.335 19.692zM453.407 616.476c0 7.757 2.788 14.331 8.364 19.72s12.711 8.075 21.404 8.056c8.693-0.019 15.518-2.704 20.475-8.056s7.745-11.926 8.364-19.72c0.62-7.795-2.169-14.667-8.364-20.616s-13.021-8.634-20.475-8.056c-7.454 0.578-14.589 3.263-21.404 8.056s-9.603 11.665-8.364 20.616zM577.127 329.763c0 7.757 2.788 14.331 8.364 19.72s12.092 7.777 19.546 7.161c7.454-0.615 14.589-3.002 21.404-7.161s9.913-11.030 9.293-20.615c0-7.161-3.098-13.437-9.293-18.826s-13.331-8.371-21.404-8.954c-8.074-0.576-14.589 2.406-19.546 8.954s-7.744 13.119-8.364 19.721zM628.299 448.028c0 8.354 2.788 14.927 8.364 19.72s12.399 7.478 20.476 8.056c8.070 0.578 14.899-2.107 20.474-8.056s8.365-12.522 8.365-19.72c0-7.198-2.79-13.772-8.365-19.72s-12.403-8.634-20.474-8.056c-8.077 0.579-14.899 3.263-20.476 8.056s-8.364 11.366-8.364 19.72z" />
<glyph unicode="&#xe947;" glyph-name="close-thin" d="M165.675 852.045c-15.939 15.939-41.781 15.939-57.72 0s-15.939-41.781 0-57.72l346.325-346.326-346.324-346.323c-15.939-15.942-15.939-41.786 0-57.722 15.939-15.942 41.781-15.942 57.72 0l346.324 346.324 346.323-346.324c15.942-15.936 41.779-15.936 57.722 0 15.936 15.942 15.936 41.779 0 57.722l-346.324 346.323 346.324 346.324c15.942 15.939 15.942 41.782 0 57.721-15.936 15.939-41.779 15.939-57.722 0l-346.323-346.324-346.326 346.325z" />
<glyph unicode="&#xe948;" glyph-name="close" d="M215.131 852.82c-14.9 14.9-39.074 14.9-53.976 0l-53.976-53.976c-14.9-14.9-14.9-39.074 0-53.976l296.867-296.867-296.867-296.869c-14.9-14.898-14.9-39.071 0-53.976l53.976-53.976c14.9-14.904 39.074-14.904 53.976 0l296.867 296.869 296.869-296.869c14.898-14.904 39.071-14.904 53.976 0l53.976 53.976c14.904 14.904 14.904 39.071 0 53.976l-296.869 296.869 296.869 296.867c14.904 14.9 14.904 39.074 0 53.976l-53.976 53.976c-14.904 14.9-39.078 14.9-53.976 0l-296.869-296.867-296.867 296.867z" />
</font>
</defs>
</svg>
